<svg xmlns="http://www.w3.org/2000/svg" xmlns:xlink="http://www.w3.org/1999/xlink" width="1920" zoomAndPan="magnify" viewBox="0 0 1440 809.999993" height="1080" preserveAspectRatio="xMidYMid meet" version="1.0"><defs><clipPath id="98c9ec17f0"><path d="M 657 264.140625 L 665 264.140625 L 665 309 L 657 309 Z M 657 264.140625 " clip-rule="nonzero"/></clipPath><clipPath id="d33a178a44"><path d="M 681 264.140625 L 689 264.140625 L 689 309 L 681 309 Z M 681 264.140625 " clip-rule="nonzero"/></clipPath><clipPath id="a8846ef668"><path d="M 704 264.140625 L 712 264.140625 L 712 309 L 704 309 Z M 704 264.140625 " clip-rule="nonzero"/></clipPath><clipPath id="ab5e8254bf"><path d="M 728 264.140625 L 736 264.140625 L 736 309 L 728 309 Z M 728 264.140625 " clip-rule="nonzero"/></clipPath><clipPath id="58b3836a21"><path d="M 751 264.140625 L 759 264.140625 L 759 309 L 751 309 Z M 751 264.140625 " clip-rule="nonzero"/></clipPath><clipPath id="163a9a764a"><path d="M 775 264.140625 L 783 264.140625 L 783 309 L 775 309 Z M 775 264.140625 " clip-rule="nonzero"/></clipPath><clipPath id="f83c9448cb"><path d="M 816 342 L 861.140625 342 L 861.140625 350 L 816 350 Z M 816 342 " clip-rule="nonzero"/></clipPath><clipPath id="3478757738"><path d="M 816 366 L 861.140625 366 L 861.140625 374 L 816 374 Z M 816 366 " clip-rule="nonzero"/></clipPath><clipPath id="2de3493c46"><path d="M 816 389 L 861.140625 389 L 861.140625 397 L 816 397 Z M 816 389 " clip-rule="nonzero"/></clipPath><clipPath id="9733339182"><path d="M 816 413 L 861.140625 413 L 861.140625 421 L 816 421 Z M 816 413 " clip-rule="nonzero"/></clipPath><clipPath id="520f2aac0e"><path d="M 816 436 L 861.140625 436 L 861.140625 444 L 816 444 Z M 816 436 " clip-rule="nonzero"/></clipPath><clipPath id="e8eec730eb"><path d="M 816 460 L 861.140625 460 L 861.140625 468 L 816 468 Z M 816 460 " clip-rule="nonzero"/></clipPath><clipPath id="461ded4c81"><path d="M 775 501 L 783 501 L 783 546.140625 L 775 546.140625 Z M 775 501 " clip-rule="nonzero"/></clipPath><clipPath id="32f1df2329"><path d="M 751 501 L 759 501 L 759 546.140625 L 751 546.140625 Z M 751 501 " clip-rule="nonzero"/></clipPath><clipPath id="ddf28dbd4a"><path d="M 728 501 L 736 501 L 736 546.140625 L 728 546.140625 Z M 728 501 " clip-rule="nonzero"/></clipPath><clipPath id="6f3632b015"><path d="M 704 501 L 712 501 L 712 546.140625 L 704 546.140625 Z M 704 501 " clip-rule="nonzero"/></clipPath><clipPath id="dd4e5b79c5"><path d="M 681 501 L 689 501 L 689 546.140625 L 681 546.140625 Z M 681 501 " clip-rule="nonzero"/></clipPath><clipPath id="226b6498c9"><path d="M 657 501 L 665 501 L 665 546.140625 L 657 546.140625 Z M 657 501 " clip-rule="nonzero"/></clipPath><clipPath id="100ffdf275"><path d="M 579.140625 460 L 624 460 L 624 468 L 579.140625 468 Z M 579.140625 460 " clip-rule="nonzero"/></clipPath><clipPath id="91561bc201"><path d="M 579.140625 436 L 624 436 L 624 444 L 579.140625 444 Z M 579.140625 436 " clip-rule="nonzero"/></clipPath><clipPath id="22e6cb507e"><path d="M 579.140625 413 L 624 413 L 624 421 L 579.140625 421 Z M 579.140625 413 " clip-rule="nonzero"/></clipPath><clipPath id="082a31cbea"><path d="M 579.140625 389 L 624 389 L 624 397 L 579.140625 397 Z M 579.140625 389 " clip-rule="nonzero"/></clipPath><clipPath id="00ed6bc316"><path d="M 579.140625 366 L 624 366 L 624 374 L 579.140625 374 Z M 579.140625 366 " clip-rule="nonzero"/></clipPath><clipPath id="2645f2e068"><path d="M 579.140625 342 L 624 342 L 624 350 L 579.140625 350 Z M 579.140625 342 " clip-rule="nonzero"/></clipPath><clipPath id="acd833e925"><path d="M 737 717 L 745 717 L 745 724.726562 L 737 724.726562 Z M 737 717 " clip-rule="nonzero"/></clipPath><clipPath id="ea4342abba"><path d="M 694 717 L 703 717 L 703 724.726562 L 694 724.726562 Z M 694 717 " clip-rule="nonzero"/></clipPath><clipPath id="a0413635c1"><path d="M 1032 379 L 1039.726562 379 L 1039.726562 388 L 1032 388 Z M 1032 379 " clip-rule="nonzero"/></clipPath><clipPath id="a859f591e7"><path d="M 1032 422 L 1039.726562 422 L 1039.726562 430 L 1032 430 Z M 1032 422 " clip-rule="nonzero"/></clipPath><clipPath id="a14b5e9d33"><path d="M 399.976562 422 L 408 422 L 408 430 L 399.976562 430 Z M 399.976562 422 " clip-rule="nonzero"/></clipPath><clipPath id="5ef12d2120"><path d="M 399.976562 379 L 408 379 L 408 388 L 399.976562 388 Z M 399.976562 379 " clip-rule="nonzero"/></clipPath><clipPath id="ea5c44bfad"><path d="M 1032 379 L 1039.726562 379 L 1039.726562 388 L 1032 388 Z M 1032 379 " clip-rule="nonzero"/></clipPath><clipPath id="d96ee29ada"><path d="M 1032 422 L 1039.726562 422 L 1039.726562 430 L 1032 430 Z M 1032 422 " clip-rule="nonzero"/></clipPath><clipPath id="b8c49c5228"><path d="M 790 418 L 794.730469 418 L 794.730469 423 L 790 423 Z M 790 418 " clip-rule="nonzero"/></clipPath><clipPath id="ccfd8f971b"><path d="M 646.980469 394 L 652 394 L 652 399 L 646.980469 399 Z M 646.980469 394 " clip-rule="nonzero"/></clipPath></defs><path fill="#ffffff" d="M 803.917969 508.328125 L 636.367188 508.328125 C 625.664062 508.328125 616.953125 499.621094 616.953125 488.917969 L 616.953125 321.367188 C 616.953125 310.664062 625.664062 301.953125 636.367188 301.953125 L 803.917969 301.953125 C 814.621094 301.953125 823.328125 310.660156 823.328125 321.367188 L 823.328125 488.917969 C 823.328125 499.621094 814.621094 508.328125 803.917969 508.328125 Z M 636.367188 308.976562 C 629.535156 308.976562 623.976562 314.535156 623.976562 321.367188 L 623.976562 488.917969 C 623.976562 495.746094 629.535156 501.304688 636.367188 501.304688 L 803.917969 501.304688 C 810.75 501.304688 816.304688 495.746094 816.304688 488.917969 L 816.304688 321.367188 C 816.304688 314.535156 810.75 308.976562 803.917969 308.976562 Z M 636.367188 308.976562 " fill-opacity="1" fill-rule="nonzero"/><path fill="#3aaded" d="M 779.726562 476.035156 L 660.558594 476.035156 C 654.335938 476.035156 649.246094 470.945312 649.246094 464.726562 L 649.246094 345.558594 C 649.246094 339.335938 654.335938 334.246094 660.558594 334.246094 L 779.726562 334.246094 C 785.945312 334.246094 791.035156 339.335938 791.035156 345.558594 L 791.035156 464.726562 C 791.035156 470.945312 785.945312 476.035156 779.726562 476.035156 Z M 779.726562 476.035156 " fill-opacity="1" fill-rule="nonzero"/><g clip-path="url(#98c9ec17f0)"><path fill="#ffffff" d="M 661.457031 308.976562 C 659.519531 308.976562 657.945312 307.40625 657.945312 305.464844 L 657.945312 267.644531 C 657.945312 265.707031 659.519531 264.132812 661.457031 264.132812 C 663.398438 264.132812 664.96875 265.707031 664.96875 267.644531 L 664.96875 305.464844 C 664.96875 307.40625 663.398438 308.976562 661.457031 308.976562 Z M 661.457031 308.976562 " fill-opacity="1" fill-rule="nonzero"/></g><g clip-path="url(#d33a178a44)"><path fill="#ffffff" d="M 684.929688 308.976562 C 682.992188 308.976562 681.417969 307.40625 681.417969 305.464844 L 681.417969 267.644531 C 681.417969 265.707031 682.992188 264.132812 684.929688 264.132812 C 686.871094 264.132812 688.441406 265.707031 688.441406 267.644531 L 688.441406 305.464844 C 688.441406 307.40625 686.871094 308.976562 684.929688 308.976562 Z M 684.929688 308.976562 " fill-opacity="1" fill-rule="nonzero"/></g><g clip-path="url(#a8846ef668)"><path fill="#ffffff" d="M 708.402344 308.976562 C 706.464844 308.976562 704.890625 307.40625 704.890625 305.464844 L 704.890625 267.644531 C 704.890625 265.707031 706.464844 264.132812 708.402344 264.132812 C 710.34375 264.132812 711.914062 265.707031 711.914062 267.644531 L 711.914062 305.464844 C 711.914062 307.40625 710.34375 308.976562 708.402344 308.976562 Z M 708.402344 308.976562 " fill-opacity="1" fill-rule="nonzero"/></g><g clip-path="url(#ab5e8254bf)"><path fill="#ffffff" d="M 731.878906 308.976562 C 729.9375 308.976562 728.367188 307.40625 728.367188 305.464844 L 728.367188 267.644531 C 728.367188 265.707031 729.9375 264.132812 731.878906 264.132812 C 733.816406 264.132812 735.390625 265.707031 735.390625 267.644531 L 735.390625 305.464844 C 735.390625 307.40625 733.816406 308.976562 731.878906 308.976562 Z M 731.878906 308.976562 " fill-opacity="1" fill-rule="nonzero"/></g><g clip-path="url(#58b3836a21)"><path fill="#ffffff" d="M 755.351562 308.976562 C 753.410156 308.976562 751.839844 307.40625 751.839844 305.464844 L 751.839844 267.644531 C 751.839844 265.707031 753.410156 264.132812 755.351562 264.132812 C 757.289062 264.132812 758.863281 265.707031 758.863281 267.644531 L 758.863281 305.464844 C 758.863281 307.40625 757.289062 308.976562 755.351562 308.976562 Z M 755.351562 308.976562 " fill-opacity="1" fill-rule="nonzero"/></g><g clip-path="url(#163a9a764a)"><path fill="#ffffff" d="M 778.824219 308.976562 C 776.886719 308.976562 775.3125 307.40625 775.3125 305.464844 L 775.3125 267.644531 C 775.3125 265.707031 776.886719 264.132812 778.824219 264.132812 C 780.765625 264.132812 782.335938 265.707031 782.335938 267.644531 L 782.335938 305.464844 C 782.335938 307.40625 780.765625 308.976562 778.824219 308.976562 Z M 778.824219 308.976562 " fill-opacity="1" fill-rule="nonzero"/></g><g clip-path="url(#f83c9448cb)"><path fill="#ffffff" d="M 857.636719 349.96875 L 819.816406 349.96875 C 817.878906 349.96875 816.304688 348.398438 816.304688 346.457031 C 816.304688 344.519531 817.878906 342.945312 819.816406 342.945312 L 857.636719 342.945312 C 859.578125 342.945312 861.148438 344.519531 861.148438 346.457031 C 861.148438 348.398438 859.578125 349.96875 857.636719 349.96875 Z M 857.636719 349.96875 " fill-opacity="1" fill-rule="nonzero"/></g><g clip-path="url(#3478757738)"><path fill="#ffffff" d="M 857.636719 373.441406 L 819.816406 373.441406 C 817.878906 373.441406 816.304688 371.871094 816.304688 369.929688 C 816.304688 367.992188 817.878906 366.417969 819.816406 366.417969 L 857.636719 366.417969 C 859.578125 366.417969 861.148438 367.992188 861.148438 369.929688 C 861.148438 371.871094 859.578125 373.441406 857.636719 373.441406 Z M 857.636719 373.441406 " fill-opacity="1" fill-rule="nonzero"/></g><g clip-path="url(#2de3493c46)"><path fill="#ffffff" d="M 857.636719 396.917969 L 819.816406 396.917969 C 817.878906 396.917969 816.304688 395.34375 816.304688 393.40625 C 816.304688 391.464844 817.878906 389.894531 819.816406 389.894531 L 857.636719 389.894531 C 859.578125 389.894531 861.148438 391.464844 861.148438 393.40625 C 861.148438 395.34375 859.578125 396.917969 857.636719 396.917969 Z M 857.636719 396.917969 " fill-opacity="1" fill-rule="nonzero"/></g><g clip-path="url(#9733339182)"><path fill="#ffffff" d="M 857.636719 420.390625 L 819.816406 420.390625 C 817.878906 420.390625 816.304688 418.816406 816.304688 416.878906 C 816.304688 414.9375 817.878906 413.367188 819.816406 413.367188 L 857.636719 413.367188 C 859.578125 413.367188 861.148438 414.9375 861.148438 416.878906 C 861.148438 418.816406 859.578125 420.390625 857.636719 420.390625 Z M 857.636719 420.390625 " fill-opacity="1" fill-rule="nonzero"/></g><g clip-path="url(#520f2aac0e)"><path fill="#ffffff" d="M 857.636719 443.863281 L 819.816406 443.863281 C 817.878906 443.863281 816.304688 442.292969 816.304688 440.351562 C 816.304688 438.414062 817.878906 436.839844 819.816406 436.839844 L 857.636719 436.839844 C 859.578125 436.839844 861.148438 438.414062 861.148438 440.351562 C 861.148438 442.292969 859.578125 443.863281 857.636719 443.863281 Z M 857.636719 443.863281 " fill-opacity="1" fill-rule="nonzero"/></g><g clip-path="url(#e8eec730eb)"><path fill="#ffffff" d="M 857.636719 467.335938 L 819.816406 467.335938 C 817.878906 467.335938 816.304688 465.765625 816.304688 463.824219 C 816.304688 461.886719 817.878906 460.3125 819.816406 460.3125 L 857.636719 460.3125 C 859.578125 460.3125 861.148438 461.886719 861.148438 463.824219 C 861.148438 465.765625 859.578125 467.335938 857.636719 467.335938 Z M 857.636719 467.335938 " fill-opacity="1" fill-rule="nonzero"/></g><g clip-path="url(#461ded4c81)"><path fill="#ffffff" d="M 778.824219 546.148438 C 776.886719 546.148438 775.3125 544.578125 775.3125 542.636719 L 775.3125 504.816406 C 775.3125 502.878906 776.886719 501.304688 778.824219 501.304688 C 780.765625 501.304688 782.335938 502.878906 782.335938 504.816406 L 782.335938 542.636719 C 782.335938 544.578125 780.765625 546.148438 778.824219 546.148438 Z M 778.824219 546.148438 " fill-opacity="1" fill-rule="nonzero"/></g><g clip-path="url(#32f1df2329)"><path fill="#ffffff" d="M 755.351562 546.148438 C 753.410156 546.148438 751.839844 544.578125 751.839844 542.636719 L 751.839844 504.816406 C 751.839844 502.878906 753.410156 501.304688 755.351562 501.304688 C 757.289062 501.304688 758.863281 502.878906 758.863281 504.816406 L 758.863281 542.636719 C 758.863281 544.578125 757.289062 546.148438 755.351562 546.148438 Z M 755.351562 546.148438 " fill-opacity="1" fill-rule="nonzero"/></g><g clip-path="url(#ddf28dbd4a)"><path fill="#ffffff" d="M 731.878906 546.148438 C 729.9375 546.148438 728.367188 544.578125 728.367188 542.636719 L 728.367188 504.816406 C 728.367188 502.878906 729.9375 501.304688 731.878906 501.304688 C 733.816406 501.304688 735.390625 502.878906 735.390625 504.816406 L 735.390625 542.636719 C 735.390625 544.578125 733.816406 546.148438 731.878906 546.148438 Z M 731.878906 546.148438 " fill-opacity="1" fill-rule="nonzero"/></g><g clip-path="url(#6f3632b015)"><path fill="#ffffff" d="M 708.402344 546.148438 C 706.464844 546.148438 704.890625 544.578125 704.890625 542.636719 L 704.890625 504.816406 C 704.890625 502.878906 706.464844 501.304688 708.402344 501.304688 C 710.34375 501.304688 711.914062 502.878906 711.914062 504.816406 L 711.914062 542.636719 C 711.914062 544.578125 710.34375 546.148438 708.402344 546.148438 Z M 708.402344 546.148438 " fill-opacity="1" fill-rule="nonzero"/></g><g clip-path="url(#dd4e5b79c5)"><path fill="#ffffff" d="M 684.929688 546.148438 C 682.992188 546.148438 681.417969 544.578125 681.417969 542.636719 L 681.417969 504.816406 C 681.417969 502.878906 682.992188 501.304688 684.929688 501.304688 C 686.871094 501.304688 688.441406 502.878906 688.441406 504.816406 L 688.441406 542.636719 C 688.441406 544.578125 686.871094 546.148438 684.929688 546.148438 Z M 684.929688 546.148438 " fill-opacity="1" fill-rule="nonzero"/></g><g clip-path="url(#226b6498c9)"><path fill="#ffffff" d="M 661.457031 546.148438 C 659.519531 546.148438 657.945312 544.578125 657.945312 542.636719 L 657.945312 504.816406 C 657.945312 502.878906 659.519531 501.304688 661.457031 501.304688 C 663.398438 501.304688 664.96875 502.878906 664.96875 504.816406 L 664.96875 542.636719 C 664.96875 544.578125 663.398438 546.148438 661.457031 546.148438 Z M 661.457031 546.148438 " fill-opacity="1" fill-rule="nonzero"/></g><g clip-path="url(#100ffdf275)"><path fill="#ffffff" d="M 620.464844 467.335938 L 582.644531 467.335938 C 580.707031 467.335938 579.132812 465.765625 579.132812 463.824219 C 579.132812 461.886719 580.707031 460.3125 582.644531 460.3125 L 620.464844 460.3125 C 622.40625 460.3125 623.976562 461.886719 623.976562 463.824219 C 623.976562 465.765625 622.40625 467.335938 620.464844 467.335938 Z M 620.464844 467.335938 " fill-opacity="1" fill-rule="nonzero"/></g><g clip-path="url(#91561bc201)"><path fill="#ffffff" d="M 620.464844 443.863281 L 582.644531 443.863281 C 580.707031 443.863281 579.132812 442.292969 579.132812 440.351562 C 579.132812 438.414062 580.707031 436.839844 582.644531 436.839844 L 620.464844 436.839844 C 622.40625 436.839844 623.976562 438.414062 623.976562 440.351562 C 623.976562 442.292969 622.40625 443.863281 620.464844 443.863281 Z M 620.464844 443.863281 " fill-opacity="1" fill-rule="nonzero"/></g><g clip-path="url(#22e6cb507e)"><path fill="#ffffff" d="M 620.464844 420.390625 L 582.644531 420.390625 C 580.707031 420.390625 579.132812 418.816406 579.132812 416.878906 C 579.132812 414.9375 580.707031 413.367188 582.644531 413.367188 L 620.464844 413.367188 C 622.40625 413.367188 623.976562 414.9375 623.976562 416.878906 C 623.976562 418.816406 622.40625 420.390625 620.464844 420.390625 Z M 620.464844 420.390625 " fill-opacity="1" fill-rule="nonzero"/></g><g clip-path="url(#082a31cbea)"><path fill="#ffffff" d="M 620.464844 396.917969 L 582.644531 396.917969 C 580.707031 396.917969 579.132812 395.34375 579.132812 393.40625 C 579.132812 391.464844 580.707031 389.894531 582.644531 389.894531 L 620.464844 389.894531 C 622.40625 389.894531 623.976562 391.464844 623.976562 393.40625 C 623.976562 395.34375 622.40625 396.917969 620.464844 396.917969 Z M 620.464844 396.917969 " fill-opacity="1" fill-rule="nonzero"/></g><g clip-path="url(#00ed6bc316)"><path fill="#ffffff" d="M 620.464844 373.441406 L 582.644531 373.441406 C 580.707031 373.441406 579.132812 371.871094 579.132812 369.929688 C 579.132812 367.992188 580.707031 366.417969 582.644531 366.417969 L 620.464844 366.417969 C 622.40625 366.417969 623.976562 367.992188 623.976562 369.929688 C 623.976562 371.871094 622.40625 373.441406 620.464844 373.441406 Z M 620.464844 373.441406 " fill-opacity="1" fill-rule="nonzero"/></g><g clip-path="url(#2645f2e068)"><path fill="#ffffff" d="M 620.464844 349.96875 L 582.644531 349.96875 C 580.707031 349.96875 579.132812 348.398438 579.132812 346.457031 C 579.132812 344.519531 580.707031 342.945312 582.644531 342.945312 L 620.464844 342.945312 C 622.40625 342.945312 623.976562 344.519531 623.976562 346.457031 C 623.976562 348.398438 622.40625 349.96875 620.464844 349.96875 Z M 620.464844 349.96875 " fill-opacity="1" fill-rule="nonzero"/></g><path fill="#ffffff" d="M 755.628906 450.875 L 684.65625 450.875 C 679.003906 450.875 674.40625 446.277344 674.40625 440.628906 L 674.40625 369.65625 C 674.40625 364.003906 679.003906 359.40625 684.65625 359.40625 L 755.628906 359.40625 C 761.28125 359.40625 765.875 364.003906 765.875 369.65625 L 765.875 440.628906 C 765.875 446.277344 761.277344 450.875 755.628906 450.875 Z M 684.65625 366.429688 C 682.878906 366.429688 681.429688 367.875 681.429688 369.65625 L 681.429688 440.628906 C 681.429688 442.40625 682.875 443.851562 684.65625 443.851562 L 755.628906 443.851562 C 757.40625 443.851562 758.851562 442.40625 758.851562 440.628906 L 758.851562 369.65625 C 758.851562 367.875 757.40625 366.429688 755.628906 366.429688 Z M 684.65625 366.429688 " fill-opacity="1" fill-rule="nonzero"/><path fill="#27ffef" d="M 652.144531 404.875 L 650.324219 404.875 L 650.324219 312.699219 L 604.589844 266.960938 L 604.589844 189.09375 L 606.40625 189.09375 L 606.40625 266.207031 L 652.144531 311.945312 Z M 652.144531 404.875 " fill-opacity="1" fill-rule="nonzero"/><path fill="#27ffef" d="M 697.882812 404.875 L 696.066406 404.875 L 696.066406 312.699219 L 650.324219 266.960938 L 650.324219 135.308594 L 652.144531 135.308594 L 652.144531 266.207031 L 697.882812 311.945312 Z M 697.882812 404.875 " fill-opacity="1" fill-rule="nonzero"/><path fill="#27ffef" d="M 673.558594 288.90625 L 672.273438 287.621094 L 697.496094 262.402344 L 697.496094 91.894531 L 699.316406 91.894531 L 699.316406 263.152344 Z M 673.558594 288.90625 " fill-opacity="1" fill-rule="nonzero"/><path fill="#27ffef" d="M 789.195312 404.875 L 787.378906 404.875 L 787.378906 311.945312 L 833.113281 266.207031 L 833.113281 189.09375 L 834.933594 189.09375 L 834.933594 266.960938 L 789.195312 312.699219 Z M 789.195312 404.875 " fill-opacity="1" fill-rule="nonzero"/><path fill="#27ffef" d="M 743.460938 404.875 L 741.640625 404.875 L 741.640625 311.945312 L 787.378906 266.207031 L 787.378906 135.308594 L 789.195312 135.308594 L 789.195312 266.960938 L 743.460938 312.699219 Z M 743.460938 404.875 " fill-opacity="1" fill-rule="nonzero"/><path fill="#27ffef" d="M 765.964844 288.90625 L 740.210938 263.152344 L 740.210938 91.894531 L 742.027344 91.894531 L 742.027344 262.402344 L 767.25 287.621094 Z M 765.964844 288.90625 " fill-opacity="1" fill-rule="nonzero"/><path fill="#27ffef" d="M 609.144531 185.707031 C 609.144531 186.191406 609.050781 186.65625 608.867188 187.101562 C 608.683594 187.550781 608.417969 187.945312 608.078125 188.285156 C 607.734375 188.628906 607.339844 188.890625 606.894531 189.074219 C 606.449219 189.261719 605.984375 189.355469 605.5 189.355469 C 605.015625 189.355469 604.550781 189.261719 604.105469 189.078125 C 603.65625 188.890625 603.261719 188.628906 602.921875 188.285156 C 602.578125 187.945312 602.316406 187.550781 602.132812 187.101562 C 601.945312 186.65625 601.855469 186.191406 601.855469 185.707031 C 601.855469 185.226562 601.945312 184.761719 602.132812 184.3125 C 602.316406 183.867188 602.578125 183.472656 602.921875 183.132812 C 603.261719 182.789062 603.65625 182.527344 604.105469 182.339844 C 604.550781 182.15625 605.015625 182.0625 605.5 182.0625 C 605.984375 182.0625 606.449219 182.15625 606.894531 182.339844 C 607.339844 182.527344 607.734375 182.789062 608.078125 183.132812 C 608.417969 183.472656 608.683594 183.867188 608.867188 184.3125 C 609.050781 184.761719 609.144531 185.226562 609.144531 185.707031 Z M 609.144531 185.707031 " fill-opacity="1" fill-rule="nonzero"/><path fill="#27ffef" d="M 702.050781 88.683594 C 702.050781 89.164062 701.957031 89.632812 701.769531 90.078125 C 701.585938 90.523438 701.324219 90.917969 700.980469 91.261719 C 700.640625 91.601562 700.246094 91.863281 699.796875 92.050781 C 699.351562 92.234375 698.886719 92.328125 698.402344 92.328125 C 697.921875 92.328125 697.457031 92.234375 697.007812 92.050781 C 696.5625 91.863281 696.167969 91.601562 695.828125 91.261719 C 695.484375 90.917969 695.222656 90.523438 695.035156 90.078125 C 694.851562 89.632812 694.757812 89.164062 694.757812 88.683594 C 694.757812 88.199219 694.851562 87.734375 695.035156 87.289062 C 695.222656 86.839844 695.484375 86.445312 695.828125 86.105469 C 696.167969 85.761719 696.5625 85.5 697.007812 85.316406 C 697.457031 85.128906 697.921875 85.039062 698.402344 85.039062 C 698.886719 85.039062 699.351562 85.128906 699.796875 85.316406 C 700.246094 85.5 700.640625 85.761719 700.980469 86.105469 C 701.324219 86.445312 701.585938 86.839844 701.769531 87.289062 C 701.957031 87.734375 702.050781 88.199219 702.050781 88.683594 Z M 702.050781 88.683594 " fill-opacity="1" fill-rule="nonzero"/><path fill="#27ffef" d="M 744.765625 88.683594 C 744.765625 89.164062 744.671875 89.632812 744.488281 90.078125 C 744.300781 90.523438 744.039062 90.917969 743.695312 91.261719 C 743.355469 91.601562 742.960938 91.863281 742.515625 92.050781 C 742.066406 92.234375 741.601562 92.328125 741.121094 92.328125 C 740.636719 92.328125 740.171875 92.234375 739.722656 92.050781 C 739.277344 91.863281 738.882812 91.601562 738.542969 91.261719 C 738.199219 90.917969 737.9375 90.523438 737.75 90.078125 C 737.566406 89.632812 737.472656 89.164062 737.472656 88.683594 C 737.472656 88.199219 737.566406 87.734375 737.75 87.289062 C 737.9375 86.839844 738.199219 86.445312 738.542969 86.105469 C 738.882812 85.761719 739.277344 85.5 739.722656 85.316406 C 740.171875 85.128906 740.636719 85.039062 741.121094 85.039062 C 741.601562 85.039062 742.066406 85.128906 742.515625 85.316406 C 742.960938 85.5 743.355469 85.761719 743.695312 86.105469 C 744.039062 86.445312 744.300781 86.839844 744.488281 87.289062 C 744.671875 87.734375 744.765625 88.199219 744.765625 88.683594 Z M 744.765625 88.683594 " fill-opacity="1" fill-rule="nonzero"/><path fill="#27ffef" d="M 651.234375 135.765625 C 648.976562 135.765625 647.136719 133.925781 647.136719 131.664062 C 647.136719 129.40625 648.972656 127.566406 651.234375 127.566406 C 653.496094 127.566406 655.335938 129.40625 655.335938 131.664062 C 655.335938 133.925781 653.496094 135.765625 651.234375 135.765625 Z M 651.234375 128.476562 C 649.472656 128.476562 648.042969 129.90625 648.042969 131.664062 C 648.042969 133.425781 649.472656 134.855469 651.234375 134.855469 C 652.996094 134.855469 654.425781 133.425781 654.425781 131.664062 C 654.425781 129.90625 652.996094 128.476562 651.234375 128.476562 Z M 651.234375 128.476562 " fill-opacity="1" fill-rule="nonzero"/><path fill="#27ffef" d="M 788.285156 135.765625 C 786.027344 135.765625 784.1875 133.925781 784.1875 131.664062 C 784.1875 129.40625 786.027344 127.566406 788.285156 127.566406 C 790.546875 127.566406 792.386719 129.40625 792.386719 131.664062 C 792.386719 133.925781 790.546875 135.765625 788.285156 135.765625 Z M 788.285156 128.476562 C 786.527344 128.476562 785.097656 129.90625 785.097656 131.664062 C 785.097656 133.425781 786.527344 134.855469 788.285156 134.855469 C 790.046875 134.855469 791.476562 133.425781 791.476562 131.664062 C 791.476562 129.90625 790.046875 128.476562 788.285156 128.476562 Z M 788.285156 128.476562 " fill-opacity="1" fill-rule="nonzero"/><path fill="#27ffef" d="M 837.667969 185.707031 C 837.667969 186.191406 837.578125 186.65625 837.390625 187.101562 C 837.207031 187.550781 836.941406 187.945312 836.601562 188.285156 C 836.257812 188.628906 835.867188 188.890625 835.417969 189.074219 C 834.972656 189.261719 834.507812 189.355469 834.023438 189.355469 C 833.539062 189.355469 833.074219 189.261719 832.628906 189.078125 C 832.183594 188.890625 831.789062 188.628906 831.445312 188.285156 C 831.105469 187.945312 830.839844 187.550781 830.65625 187.101562 C 830.472656 186.65625 830.378906 186.191406 830.378906 185.707031 C 830.378906 185.226562 830.472656 184.761719 830.65625 184.3125 C 830.839844 183.867188 831.105469 183.472656 831.445312 183.132812 C 831.789062 182.789062 832.183594 182.527344 832.628906 182.339844 C 833.074219 182.15625 833.539062 182.0625 834.023438 182.0625 C 834.507812 182.0625 834.972656 182.15625 835.417969 182.339844 C 835.867188 182.527344 836.257812 182.789062 836.601562 183.132812 C 836.941406 183.472656 837.207031 183.867188 837.390625 184.3125 C 837.578125 184.761719 837.667969 185.226562 837.667969 185.707031 Z M 837.667969 185.707031 " fill-opacity="1" fill-rule="nonzero"/><path fill="#27ffef" d="M 787.378906 404.875 L 789.199219 404.875 L 789.199219 497.054688 L 834.933594 542.792969 L 834.933594 620.660156 L 833.117188 620.660156 L 833.117188 543.546875 L 787.378906 497.808594 Z M 787.378906 404.875 " fill-opacity="1" fill-rule="nonzero"/><path fill="#27ffef" d="M 741.640625 404.875 L 743.457031 404.875 L 743.457031 497.054688 L 789.199219 542.792969 L 789.199219 674.445312 L 787.378906 674.445312 L 787.378906 543.546875 L 741.640625 497.808594 Z M 741.640625 404.875 " fill-opacity="1" fill-rule="nonzero"/><path fill="#27ffef" d="M 765.964844 520.84375 L 767.25 522.132812 L 742.027344 547.351562 L 742.027344 717.859375 L 740.207031 717.859375 L 740.207031 546.597656 Z M 765.964844 520.84375 " fill-opacity="1" fill-rule="nonzero"/><path fill="#27ffef" d="M 650.328125 404.875 L 652.144531 404.875 L 652.144531 497.808594 L 606.410156 543.546875 L 606.410156 620.660156 L 604.589844 620.660156 L 604.589844 542.792969 L 650.328125 497.054688 Z M 650.328125 404.875 " fill-opacity="1" fill-rule="nonzero"/><path fill="#27ffef" d="M 696.0625 404.875 L 697.882812 404.875 L 697.882812 497.808594 L 652.144531 543.546875 L 652.144531 674.445312 L 650.328125 674.445312 L 650.328125 542.792969 L 696.0625 497.054688 Z M 696.0625 404.875 " fill-opacity="1" fill-rule="nonzero"/><path fill="#27ffef" d="M 673.558594 520.84375 L 699.3125 546.597656 L 699.3125 717.859375 L 697.496094 717.859375 L 697.496094 547.351562 L 672.273438 522.132812 Z M 673.558594 520.84375 " fill-opacity="1" fill-rule="nonzero"/><path fill="#27ffef" d="M 837.667969 624.042969 C 837.667969 624.527344 837.578125 624.992188 837.390625 625.4375 C 837.207031 625.886719 836.941406 626.277344 836.601562 626.621094 C 836.257812 626.960938 835.867188 627.226562 835.417969 627.410156 C 834.972656 627.597656 834.507812 627.6875 834.023438 627.6875 C 833.539062 627.6875 833.074219 627.597656 832.628906 627.410156 C 832.183594 627.226562 831.789062 626.960938 831.445312 626.621094 C 831.105469 626.277344 830.839844 625.886719 830.65625 625.4375 C 830.472656 624.992188 830.378906 624.527344 830.378906 624.042969 C 830.378906 623.558594 830.472656 623.09375 830.65625 622.648438 C 830.839844 622.203125 831.105469 621.808594 831.445312 621.464844 C 831.789062 621.125 832.183594 620.859375 832.628906 620.675781 C 833.074219 620.492188 833.539062 620.398438 834.023438 620.398438 C 834.507812 620.398438 834.972656 620.492188 835.417969 620.675781 C 835.867188 620.859375 836.257812 621.125 836.601562 621.464844 C 836.941406 621.808594 837.207031 622.203125 837.390625 622.648438 C 837.578125 623.09375 837.667969 623.558594 837.667969 624.042969 Z M 837.667969 624.042969 " fill-opacity="1" fill-rule="nonzero"/><g clip-path="url(#acd833e925)"><path fill="#27ffef" d="M 744.765625 721.070312 C 744.765625 721.554688 744.671875 722.019531 744.488281 722.464844 C 744.300781 722.914062 744.039062 723.308594 743.695312 723.648438 C 743.355469 723.992188 742.960938 724.253906 742.515625 724.4375 C 742.066406 724.625 741.601562 724.714844 741.121094 724.714844 C 740.636719 724.714844 740.171875 724.625 739.722656 724.4375 C 739.277344 724.253906 738.882812 723.992188 738.542969 723.648438 C 738.199219 723.308594 737.9375 722.914062 737.75 722.464844 C 737.566406 722.019531 737.472656 721.554688 737.472656 721.070312 C 737.472656 720.589844 737.566406 720.125 737.75 719.675781 C 737.9375 719.230469 738.199219 718.835938 738.542969 718.492188 C 738.882812 718.152344 739.277344 717.890625 739.722656 717.703125 C 740.171875 717.519531 740.636719 717.425781 741.121094 717.425781 C 741.601562 717.425781 742.066406 717.519531 742.515625 717.703125 C 742.960938 717.890625 743.355469 718.152344 743.695312 718.492188 C 744.039062 718.835938 744.300781 719.230469 744.488281 719.675781 C 744.671875 720.125 744.765625 720.589844 744.765625 721.070312 Z M 744.765625 721.070312 " fill-opacity="1" fill-rule="nonzero"/></g><g clip-path="url(#ea4342abba)"><path fill="#27ffef" d="M 702.050781 721.070312 C 702.050781 721.554688 701.957031 722.019531 701.769531 722.464844 C 701.585938 722.914062 701.324219 723.308594 700.980469 723.648438 C 700.640625 723.992188 700.246094 724.253906 699.796875 724.4375 C 699.351562 724.625 698.886719 724.714844 698.402344 724.714844 C 697.921875 724.714844 697.457031 724.625 697.007812 724.4375 C 696.5625 724.253906 696.167969 723.992188 695.828125 723.648438 C 695.484375 723.308594 695.222656 722.914062 695.035156 722.464844 C 694.851562 722.019531 694.757812 721.554688 694.757812 721.070312 C 694.757812 720.589844 694.851562 720.125 695.035156 719.675781 C 695.222656 719.230469 695.484375 718.835938 695.828125 718.492188 C 696.167969 718.152344 696.5625 717.890625 697.007812 717.703125 C 697.457031 717.519531 697.921875 717.425781 698.402344 717.425781 C 698.886719 717.425781 699.351562 717.519531 699.796875 717.703125 C 700.246094 717.890625 700.640625 718.152344 700.980469 718.492188 C 701.324219 718.835938 701.585938 719.230469 701.769531 719.675781 C 701.957031 720.125 702.050781 720.589844 702.050781 721.070312 Z M 702.050781 721.070312 " fill-opacity="1" fill-rule="nonzero"/></g><path fill="#27ffef" d="M 788.289062 673.988281 C 790.546875 673.988281 792.386719 675.828125 792.386719 678.089844 C 792.386719 680.347656 790.546875 682.1875 788.289062 682.1875 C 786.027344 682.1875 784.1875 680.347656 784.1875 678.089844 C 784.1875 675.828125 786.027344 673.988281 788.289062 673.988281 Z M 788.289062 681.277344 C 790.046875 681.277344 791.480469 679.847656 791.480469 678.085938 C 791.480469 676.328125 790.046875 674.894531 788.289062 674.894531 C 786.527344 674.894531 785.097656 676.328125 785.097656 678.085938 C 785.097656 679.847656 786.527344 681.277344 788.289062 681.277344 Z M 788.289062 681.277344 " fill-opacity="1" fill-rule="nonzero"/><path fill="#27ffef" d="M 651.234375 673.988281 C 653.496094 673.988281 655.335938 675.828125 655.335938 678.089844 C 655.335938 680.347656 653.496094 682.1875 651.234375 682.1875 C 648.976562 682.1875 647.136719 680.347656 647.136719 678.089844 C 647.136719 675.828125 648.976562 673.988281 651.234375 673.988281 Z M 651.234375 681.277344 C 652.996094 681.277344 654.425781 679.847656 654.425781 678.085938 C 654.425781 676.328125 652.996094 674.894531 651.234375 674.894531 C 649.476562 674.894531 648.046875 676.328125 648.046875 678.085938 C 648.046875 679.847656 649.476562 681.277344 651.234375 681.277344 Z M 651.234375 681.277344 " fill-opacity="1" fill-rule="nonzero"/><path fill="#27ffef" d="M 609.144531 624.042969 C 609.144531 624.527344 609.050781 624.992188 608.867188 625.4375 C 608.683594 625.886719 608.417969 626.277344 608.078125 626.621094 C 607.734375 626.960938 607.339844 627.226562 606.894531 627.410156 C 606.449219 627.597656 605.984375 627.6875 605.5 627.6875 C 605.015625 627.6875 604.550781 627.597656 604.105469 627.410156 C 603.65625 627.226562 603.261719 626.960938 602.921875 626.621094 C 602.578125 626.277344 602.316406 625.886719 602.132812 625.4375 C 601.945312 624.992188 601.855469 624.527344 601.855469 624.042969 C 601.855469 623.558594 601.945312 623.09375 602.132812 622.648438 C 602.316406 622.203125 602.578125 621.808594 602.921875 621.464844 C 603.261719 621.125 603.65625 620.859375 604.105469 620.675781 C 604.550781 620.492188 605.015625 620.398438 605.5 620.398438 C 605.984375 620.398438 606.449219 620.492188 606.894531 620.675781 C 607.339844 620.859375 607.734375 621.125 608.078125 621.464844 C 608.417969 621.808594 608.683594 622.203125 608.867188 622.648438 C 609.050781 623.09375 609.144531 623.558594 609.144531 624.042969 Z M 609.144531 624.042969 " fill-opacity="1" fill-rule="nonzero"/><path fill="#27ffef" d="M 652.144531 404.875 L 650.324219 404.875 L 650.324219 312.699219 L 604.589844 266.960938 L 604.589844 189.09375 L 606.40625 189.09375 L 606.40625 266.207031 L 652.144531 311.945312 Z M 652.144531 404.875 " fill-opacity="1" fill-rule="nonzero"/><path fill="#27ffef" d="M 697.882812 404.875 L 696.066406 404.875 L 696.066406 312.699219 L 650.324219 266.960938 L 650.324219 135.308594 L 652.144531 135.308594 L 652.144531 266.207031 L 697.882812 311.945312 Z M 697.882812 404.875 " fill-opacity="1" fill-rule="nonzero"/><path fill="#27ffef" d="M 673.558594 288.90625 L 672.273438 287.621094 L 697.496094 262.402344 L 697.496094 91.894531 L 699.316406 91.894531 L 699.316406 263.152344 Z M 673.558594 288.90625 " fill-opacity="1" fill-rule="nonzero"/><path fill="#27ffef" d="M 789.195312 404.875 L 787.378906 404.875 L 787.378906 311.945312 L 833.113281 266.207031 L 833.113281 189.09375 L 834.933594 189.09375 L 834.933594 266.960938 L 789.195312 312.699219 Z M 789.195312 404.875 " fill-opacity="1" fill-rule="nonzero"/><path fill="#27ffef" d="M 743.460938 404.875 L 741.640625 404.875 L 741.640625 311.945312 L 787.378906 266.207031 L 787.378906 135.308594 L 789.195312 135.308594 L 789.195312 266.960938 L 743.460938 312.699219 Z M 743.460938 404.875 " fill-opacity="1" fill-rule="nonzero"/><path fill="#27ffef" d="M 765.964844 288.90625 L 740.210938 263.152344 L 740.210938 91.894531 L 742.027344 91.894531 L 742.027344 262.402344 L 767.25 287.621094 Z M 765.964844 288.90625 " fill-opacity="1" fill-rule="nonzero"/><path fill="#27ffef" d="M 609.144531 185.707031 C 609.144531 186.191406 609.050781 186.65625 608.867188 187.101562 C 608.683594 187.550781 608.417969 187.945312 608.078125 188.285156 C 607.734375 188.628906 607.339844 188.890625 606.894531 189.074219 C 606.449219 189.261719 605.984375 189.355469 605.5 189.355469 C 605.015625 189.355469 604.550781 189.261719 604.105469 189.078125 C 603.65625 188.890625 603.261719 188.628906 602.921875 188.285156 C 602.578125 187.945312 602.316406 187.550781 602.132812 187.101562 C 601.945312 186.65625 601.855469 186.191406 601.855469 185.707031 C 601.855469 185.226562 601.945312 184.761719 602.132812 184.3125 C 602.316406 183.867188 602.578125 183.472656 602.921875 183.132812 C 603.261719 182.789062 603.65625 182.527344 604.105469 182.339844 C 604.550781 182.15625 605.015625 182.0625 605.5 182.0625 C 605.984375 182.0625 606.449219 182.15625 606.894531 182.339844 C 607.339844 182.527344 607.734375 182.789062 608.078125 183.132812 C 608.417969 183.472656 608.683594 183.867188 608.867188 184.3125 C 609.050781 184.761719 609.144531 185.226562 609.144531 185.707031 Z M 609.144531 185.707031 " fill-opacity="1" fill-rule="nonzero"/><path fill="#27ffef" d="M 702.050781 88.683594 C 702.050781 89.164062 701.957031 89.632812 701.769531 90.078125 C 701.585938 90.523438 701.324219 90.917969 700.980469 91.261719 C 700.640625 91.601562 700.246094 91.863281 699.796875 92.050781 C 699.351562 92.234375 698.886719 92.328125 698.402344 92.328125 C 697.921875 92.328125 697.457031 92.234375 697.007812 92.050781 C 696.5625 91.863281 696.167969 91.601562 695.828125 91.261719 C 695.484375 90.917969 695.222656 90.523438 695.035156 90.078125 C 694.851562 89.632812 694.757812 89.164062 694.757812 88.683594 C 694.757812 88.199219 694.851562 87.734375 695.035156 87.289062 C 695.222656 86.839844 695.484375 86.445312 695.828125 86.105469 C 696.167969 85.761719 696.5625 85.5 697.007812 85.316406 C 697.457031 85.128906 697.921875 85.039062 698.402344 85.039062 C 698.886719 85.039062 699.351562 85.128906 699.796875 85.316406 C 700.246094 85.5 700.640625 85.761719 700.980469 86.105469 C 701.324219 86.445312 701.585938 86.839844 701.769531 87.289062 C 701.957031 87.734375 702.050781 88.199219 702.050781 88.683594 Z M 702.050781 88.683594 " fill-opacity="1" fill-rule="nonzero"/><path fill="#27ffef" d="M 744.765625 88.683594 C 744.765625 89.164062 744.671875 89.632812 744.488281 90.078125 C 744.300781 90.523438 744.039062 90.917969 743.695312 91.261719 C 743.355469 91.601562 742.960938 91.863281 742.515625 92.050781 C 742.066406 92.234375 741.601562 92.328125 741.121094 92.328125 C 740.636719 92.328125 740.171875 92.234375 739.722656 92.050781 C 739.277344 91.863281 738.882812 91.601562 738.542969 91.261719 C 738.199219 90.917969 737.9375 90.523438 737.75 90.078125 C 737.566406 89.632812 737.472656 89.164062 737.472656 88.683594 C 737.472656 88.199219 737.566406 87.734375 737.75 87.289062 C 737.9375 86.839844 738.199219 86.445312 738.542969 86.105469 C 738.882812 85.761719 739.277344 85.5 739.722656 85.316406 C 740.171875 85.128906 740.636719 85.039062 741.121094 85.039062 C 741.601562 85.039062 742.066406 85.128906 742.515625 85.316406 C 742.960938 85.5 743.355469 85.761719 743.695312 86.105469 C 744.039062 86.445312 744.300781 86.839844 744.488281 87.289062 C 744.671875 87.734375 744.765625 88.199219 744.765625 88.683594 Z M 744.765625 88.683594 " fill-opacity="1" fill-rule="nonzero"/><path fill="#27ffef" d="M 651.234375 135.765625 C 648.976562 135.765625 647.136719 133.925781 647.136719 131.664062 C 647.136719 129.40625 648.972656 127.566406 651.234375 127.566406 C 653.496094 127.566406 655.335938 129.40625 655.335938 131.664062 C 655.335938 133.925781 653.496094 135.765625 651.234375 135.765625 Z M 651.234375 128.476562 C 649.472656 128.476562 648.042969 129.90625 648.042969 131.664062 C 648.042969 133.425781 649.472656 134.855469 651.234375 134.855469 C 652.996094 134.855469 654.425781 133.425781 654.425781 131.664062 C 654.425781 129.90625 652.996094 128.476562 651.234375 128.476562 Z M 651.234375 128.476562 " fill-opacity="1" fill-rule="nonzero"/><path fill="#27ffef" d="M 788.285156 135.765625 C 786.027344 135.765625 784.1875 133.925781 784.1875 131.664062 C 784.1875 129.40625 786.027344 127.566406 788.285156 127.566406 C 790.546875 127.566406 792.386719 129.40625 792.386719 131.664062 C 792.386719 133.925781 790.546875 135.765625 788.285156 135.765625 Z M 788.285156 128.476562 C 786.527344 128.476562 785.097656 129.90625 785.097656 131.664062 C 785.097656 133.425781 786.527344 134.855469 788.285156 134.855469 C 790.046875 134.855469 791.476562 133.425781 791.476562 131.664062 C 791.476562 129.90625 790.046875 128.476562 788.285156 128.476562 Z M 788.285156 128.476562 " fill-opacity="1" fill-rule="nonzero"/><path fill="#27ffef" d="M 837.667969 185.707031 C 837.667969 186.191406 837.578125 186.65625 837.390625 187.101562 C 837.207031 187.550781 836.941406 187.945312 836.601562 188.285156 C 836.257812 188.628906 835.867188 188.890625 835.417969 189.074219 C 834.972656 189.261719 834.507812 189.355469 834.023438 189.355469 C 833.539062 189.355469 833.074219 189.261719 832.628906 189.078125 C 832.183594 188.890625 831.789062 188.628906 831.445312 188.285156 C 831.105469 187.945312 830.839844 187.550781 830.65625 187.101562 C 830.472656 186.65625 830.378906 186.191406 830.378906 185.707031 C 830.378906 185.226562 830.472656 184.761719 830.65625 184.3125 C 830.839844 183.867188 831.105469 183.472656 831.445312 183.132812 C 831.789062 182.789062 832.183594 182.527344 832.628906 182.339844 C 833.074219 182.15625 833.539062 182.0625 834.023438 182.0625 C 834.507812 182.0625 834.972656 182.15625 835.417969 182.339844 C 835.867188 182.527344 836.257812 182.789062 836.601562 183.132812 C 836.941406 183.472656 837.207031 183.867188 837.390625 184.3125 C 837.578125 184.761719 837.667969 185.226562 837.667969 185.707031 Z M 837.667969 185.707031 " fill-opacity="1" fill-rule="nonzero"/><path fill="#27ffef" d="M 719.761719 337.257812 L 719.761719 335.441406 L 811.941406 335.441406 L 857.679688 289.703125 L 935.542969 289.703125 L 935.542969 291.523438 L 858.429688 291.523438 L 812.695312 337.257812 Z M 719.761719 337.257812 " fill-opacity="1" fill-rule="nonzero"/><path fill="#27ffef" d="M 719.761719 383 L 719.761719 381.179688 L 811.941406 381.179688 L 857.679688 335.441406 L 989.328125 335.441406 L 989.328125 337.257812 L 858.429688 337.257812 L 812.695312 383 Z M 719.761719 383 " fill-opacity="1" fill-rule="nonzero"/><path fill="#27ffef" d="M 835.730469 358.671875 L 837.015625 357.386719 L 862.238281 382.609375 L 1032.742188 382.609375 L 1032.742188 384.429688 L 861.484375 384.429688 Z M 835.730469 358.671875 " fill-opacity="1" fill-rule="nonzero"/><path fill="#27ffef" d="M 719.761719 474.3125 L 719.761719 472.496094 L 812.695312 472.496094 L 858.429688 518.230469 L 935.542969 518.230469 L 935.542969 520.050781 L 857.679688 520.050781 L 811.941406 474.3125 Z M 719.761719 474.3125 " fill-opacity="1" fill-rule="nonzero"/><path fill="#27ffef" d="M 719.761719 428.574219 L 719.761719 426.753906 L 812.695312 426.753906 L 858.429688 472.496094 L 989.328125 472.496094 L 989.328125 474.3125 L 857.679688 474.3125 L 811.941406 428.574219 Z M 719.761719 428.574219 " fill-opacity="1" fill-rule="nonzero"/><path fill="#27ffef" d="M 835.730469 451.078125 L 861.484375 425.324219 L 1032.742188 425.324219 L 1032.742188 427.144531 L 862.238281 427.144531 L 837.015625 452.363281 Z M 835.730469 451.078125 " fill-opacity="1" fill-rule="nonzero"/><path fill="#27ffef" d="M 942.574219 290.613281 C 942.574219 291.097656 942.480469 291.5625 942.296875 292.007812 C 942.113281 292.457031 941.847656 292.847656 941.507812 293.191406 C 941.164062 293.53125 940.769531 293.796875 940.324219 293.980469 C 939.878906 294.167969 939.414062 294.257812 938.929688 294.257812 C 938.445312 294.257812 937.980469 294.167969 937.535156 293.980469 C 937.085938 293.796875 936.695312 293.53125 936.351562 293.191406 C 936.011719 292.847656 935.746094 292.457031 935.5625 292.007812 C 935.375 291.5625 935.285156 291.097656 935.285156 290.613281 C 935.285156 290.128906 935.375 289.664062 935.5625 289.21875 C 935.746094 288.773438 936.011719 288.378906 936.351562 288.035156 C 936.695312 287.695312 937.085938 287.429688 937.535156 287.246094 C 937.980469 287.0625 938.445312 286.96875 938.929688 286.96875 C 939.414062 286.96875 939.878906 287.0625 940.324219 287.246094 C 940.769531 287.429688 941.164062 287.695312 941.507812 288.035156 C 941.847656 288.378906 942.113281 288.773438 942.296875 289.21875 C 942.480469 289.664062 942.574219 290.128906 942.574219 290.613281 Z M 942.574219 290.613281 " fill-opacity="1" fill-rule="nonzero"/><g clip-path="url(#a0413635c1)"><path fill="#27ffef" d="M 1039.601562 383.519531 C 1039.601562 384.003906 1039.507812 384.46875 1039.324219 384.914062 C 1039.140625 385.363281 1038.875 385.753906 1038.535156 386.097656 C 1038.191406 386.4375 1037.796875 386.703125 1037.351562 386.886719 C 1036.90625 387.074219 1036.441406 387.164062 1035.957031 387.164062 C 1035.472656 387.164062 1035.007812 387.074219 1034.5625 386.886719 C 1034.117188 386.703125 1033.722656 386.4375 1033.378906 386.097656 C 1033.039062 385.753906 1032.773438 385.363281 1032.589844 384.914062 C 1032.402344 384.46875 1032.3125 384.003906 1032.3125 383.519531 C 1032.3125 383.035156 1032.402344 382.570312 1032.589844 382.125 C 1032.773438 381.679688 1033.039062 381.285156 1033.378906 380.941406 C 1033.722656 380.601562 1034.117188 380.335938 1034.5625 380.152344 C 1035.007812 379.96875 1035.472656 379.875 1035.957031 379.875 C 1036.441406 379.875 1036.90625 379.96875 1037.351562 380.152344 C 1037.796875 380.335938 1038.191406 380.601562 1038.535156 380.941406 C 1038.875 381.285156 1039.140625 381.679688 1039.324219 382.125 C 1039.507812 382.570312 1039.601562 383.035156 1039.601562 383.519531 Z M 1039.601562 383.519531 " fill-opacity="1" fill-rule="nonzero"/></g><g clip-path="url(#a859f591e7)"><path fill="#27ffef" d="M 1039.601562 426.234375 C 1039.601562 426.71875 1039.507812 427.183594 1039.324219 427.628906 C 1039.140625 428.074219 1038.875 428.46875 1038.535156 428.8125 C 1038.191406 429.152344 1037.796875 429.417969 1037.351562 429.601562 C 1036.90625 429.785156 1036.441406 429.878906 1035.957031 429.878906 C 1035.472656 429.878906 1035.007812 429.785156 1034.5625 429.601562 C 1034.117188 429.417969 1033.722656 429.152344 1033.378906 428.8125 C 1033.039062 428.46875 1032.773438 428.074219 1032.589844 427.628906 C 1032.402344 427.183594 1032.3125 426.71875 1032.3125 426.234375 C 1032.3125 425.75 1032.402344 425.285156 1032.589844 424.839844 C 1032.773438 424.390625 1033.039062 424 1033.378906 423.65625 C 1033.722656 423.316406 1034.117188 423.050781 1034.5625 422.867188 C 1035.007812 422.679688 1035.472656 422.589844 1035.957031 422.589844 C 1036.441406 422.589844 1036.90625 422.679688 1037.351562 422.867188 C 1037.796875 423.050781 1038.191406 423.316406 1038.535156 423.65625 C 1038.875 424 1039.140625 424.390625 1039.324219 424.839844 C 1039.507812 425.285156 1039.601562 425.75 1039.601562 426.234375 Z M 1039.601562 426.234375 " fill-opacity="1" fill-rule="nonzero"/></g><path fill="#27ffef" d="M 988.871094 336.351562 C 988.871094 334.089844 990.710938 332.25 992.972656 332.25 C 995.230469 332.25 997.070312 334.089844 997.070312 336.351562 C 997.070312 338.613281 995.230469 340.453125 992.972656 340.453125 C 990.710938 340.453125 988.871094 338.613281 988.871094 336.351562 Z M 996.164062 336.351562 C 996.164062 334.589844 994.730469 333.160156 992.972656 333.160156 C 991.210938 333.160156 989.78125 334.589844 989.78125 336.351562 C 989.78125 338.109375 991.210938 339.542969 992.972656 339.542969 C 994.730469 339.542969 996.164062 338.109375 996.164062 336.351562 Z M 996.164062 336.351562 " fill-opacity="1" fill-rule="nonzero"/><path fill="#27ffef" d="M 988.871094 473.402344 C 988.871094 471.144531 990.710938 469.304688 992.972656 469.304688 C 995.230469 469.304688 997.070312 471.144531 997.070312 473.402344 C 997.070312 475.664062 995.230469 477.503906 992.972656 477.503906 C 990.710938 477.503906 988.871094 475.664062 988.871094 473.402344 Z M 996.164062 473.402344 C 996.164062 471.644531 994.730469 470.210938 992.972656 470.210938 C 991.210938 470.210938 989.78125 471.644531 989.78125 473.402344 C 989.78125 475.164062 991.210938 476.59375 992.972656 476.59375 C 994.730469 476.59375 996.164062 475.160156 996.164062 473.402344 Z M 996.164062 473.402344 " fill-opacity="1" fill-rule="nonzero"/><path fill="#27ffef" d="M 942.574219 519.140625 C 942.574219 519.625 942.480469 520.089844 942.296875 520.535156 C 942.113281 520.980469 941.847656 521.375 941.507812 521.71875 C 941.164062 522.058594 940.769531 522.324219 940.324219 522.507812 C 939.878906 522.691406 939.414062 522.785156 938.929688 522.785156 C 938.445312 522.785156 937.980469 522.691406 937.535156 522.507812 C 937.085938 522.324219 936.695312 522.058594 936.351562 521.71875 C 936.011719 521.375 935.746094 520.980469 935.5625 520.535156 C 935.375 520.089844 935.285156 519.625 935.285156 519.140625 C 935.285156 518.65625 935.375 518.191406 935.5625 517.746094 C 935.746094 517.296875 936.011719 516.90625 936.351562 516.5625 C 936.695312 516.222656 937.085938 515.957031 937.535156 515.773438 C 937.980469 515.585938 938.445312 515.496094 938.929688 515.496094 C 939.414062 515.496094 939.878906 515.585938 940.324219 515.773438 C 940.769531 515.957031 941.164062 516.222656 941.507812 516.5625 C 941.847656 516.90625 942.113281 517.296875 942.296875 517.746094 C 942.480469 518.191406 942.574219 518.65625 942.574219 519.140625 Z M 942.574219 519.140625 " fill-opacity="1" fill-rule="nonzero"/><path fill="#27ffef" d="M 719.761719 472.496094 L 719.761719 474.3125 L 627.582031 474.3125 L 581.84375 520.050781 L 503.980469 520.050781 L 503.980469 518.230469 L 581.09375 518.230469 L 626.828125 472.496094 Z M 719.761719 472.496094 " fill-opacity="1" fill-rule="nonzero"/><path fill="#27ffef" d="M 719.761719 426.753906 L 719.761719 428.574219 L 627.582031 428.574219 L 581.84375 474.3125 L 450.195312 474.3125 L 450.195312 472.496094 L 581.09375 472.496094 L 626.828125 426.753906 Z M 719.761719 426.753906 " fill-opacity="1" fill-rule="nonzero"/><path fill="#27ffef" d="M 603.792969 451.082031 L 602.507812 452.367188 L 577.285156 427.144531 L 406.78125 427.144531 L 406.78125 425.324219 L 578.039062 425.324219 Z M 603.792969 451.082031 " fill-opacity="1" fill-rule="nonzero"/><path fill="#27ffef" d="M 719.761719 335.441406 L 719.761719 337.257812 L 626.828125 337.257812 L 581.09375 291.523438 L 503.980469 291.523438 L 503.980469 289.703125 L 581.84375 289.703125 L 627.582031 335.441406 Z M 719.761719 335.441406 " fill-opacity="1" fill-rule="nonzero"/><path fill="#27ffef" d="M 719.761719 381.179688 L 719.761719 382.996094 L 626.828125 382.996094 L 581.09375 337.257812 L 450.195312 337.257812 L 450.195312 335.441406 L 581.84375 335.441406 L 627.582031 381.179688 Z M 719.761719 381.179688 " fill-opacity="1" fill-rule="nonzero"/><path fill="#27ffef" d="M 603.792969 358.671875 L 578.039062 384.425781 L 406.78125 384.425781 L 406.78125 382.609375 L 577.285156 382.609375 L 602.507812 357.386719 Z M 603.792969 358.671875 " fill-opacity="1" fill-rule="nonzero"/><path fill="#27ffef" d="M 504.238281 519.140625 C 504.238281 519.625 504.148438 520.089844 503.960938 520.535156 C 503.777344 520.980469 503.511719 521.375 503.171875 521.71875 C 502.828125 522.058594 502.433594 522.324219 501.988281 522.507812 C 501.542969 522.691406 501.078125 522.785156 500.59375 522.785156 C 500.109375 522.785156 499.644531 522.691406 499.199219 522.507812 C 498.753906 522.324219 498.359375 522.058594 498.015625 521.71875 C 497.675781 521.375 497.410156 520.980469 497.226562 520.535156 C 497.042969 520.089844 496.949219 519.625 496.949219 519.140625 C 496.949219 518.65625 497.042969 518.191406 497.226562 517.746094 C 497.410156 517.296875 497.675781 516.90625 498.015625 516.5625 C 498.359375 516.222656 498.753906 515.957031 499.199219 515.773438 C 499.644531 515.585938 500.109375 515.496094 500.59375 515.496094 C 501.078125 515.496094 501.542969 515.585938 501.988281 515.773438 C 502.433594 515.957031 502.828125 516.222656 503.171875 516.5625 C 503.511719 516.90625 503.777344 517.296875 503.960938 517.746094 C 504.148438 518.191406 504.238281 518.65625 504.238281 519.140625 Z M 504.238281 519.140625 " fill-opacity="1" fill-rule="nonzero"/><g clip-path="url(#a14b5e9d33)"><path fill="#27ffef" d="M 407.210938 426.234375 C 407.210938 426.71875 407.117188 427.183594 406.933594 427.628906 C 406.75 428.074219 406.484375 428.46875 406.144531 428.8125 C 405.800781 429.152344 405.40625 429.417969 404.960938 429.601562 C 404.515625 429.785156 404.050781 429.878906 403.566406 429.878906 C 403.082031 429.878906 402.617188 429.785156 402.171875 429.601562 C 401.726562 429.417969 401.332031 429.152344 400.988281 428.8125 C 400.648438 428.46875 400.382812 428.074219 400.199219 427.628906 C 400.011719 427.183594 399.921875 426.71875 399.921875 426.234375 C 399.921875 425.75 400.011719 425.285156 400.199219 424.839844 C 400.382812 424.390625 400.648438 424 400.988281 423.65625 C 401.332031 423.316406 401.726562 423.050781 402.171875 422.867188 C 402.617188 422.679688 403.082031 422.589844 403.566406 422.589844 C 404.050781 422.589844 404.515625 422.679688 404.960938 422.867188 C 405.40625 423.050781 405.800781 423.316406 406.144531 423.65625 C 406.484375 424 406.75 424.390625 406.933594 424.839844 C 407.117188 425.285156 407.210938 425.75 407.210938 426.234375 Z M 407.210938 426.234375 " fill-opacity="1" fill-rule="nonzero"/></g><g clip-path="url(#5ef12d2120)"><path fill="#27ffef" d="M 407.210938 383.519531 C 407.210938 384.003906 407.117188 384.46875 406.933594 384.914062 C 406.75 385.363281 406.484375 385.753906 406.144531 386.097656 C 405.800781 386.4375 405.40625 386.703125 404.960938 386.886719 C 404.515625 387.074219 404.050781 387.164062 403.566406 387.164062 C 403.082031 387.164062 402.617188 387.074219 402.171875 386.886719 C 401.726562 386.703125 401.332031 386.4375 400.988281 386.097656 C 400.648438 385.753906 400.382812 385.363281 400.199219 384.914062 C 400.011719 384.46875 399.921875 384.003906 399.921875 383.519531 C 399.921875 383.035156 400.011719 382.570312 400.199219 382.125 C 400.382812 381.679688 400.648438 381.285156 400.988281 380.941406 C 401.332031 380.601562 401.726562 380.335938 402.171875 380.152344 C 402.617188 379.96875 403.082031 379.875 403.566406 379.875 C 404.050781 379.875 404.515625 379.96875 404.960938 380.152344 C 405.40625 380.335938 405.800781 380.601562 406.144531 380.941406 C 406.484375 381.285156 406.75 381.679688 406.933594 382.125 C 407.117188 382.570312 407.210938 383.035156 407.210938 383.519531 Z M 407.210938 383.519531 " fill-opacity="1" fill-rule="nonzero"/></g><path fill="#27ffef" d="M 450.648438 473.402344 C 450.648438 475.664062 448.808594 477.503906 446.550781 477.503906 C 444.289062 477.503906 442.453125 475.664062 442.453125 473.402344 C 442.453125 471.140625 444.289062 469.300781 446.550781 469.300781 C 448.808594 469.300781 450.648438 471.140625 450.648438 473.402344 Z M 443.359375 473.402344 C 443.359375 475.164062 444.789062 476.59375 446.550781 476.59375 C 448.308594 476.59375 449.742188 475.164062 449.742188 473.402344 C 449.742188 471.644531 448.308594 470.210938 446.550781 470.210938 C 444.789062 470.210938 443.359375 471.644531 443.359375 473.402344 Z M 443.359375 473.402344 " fill-opacity="1" fill-rule="nonzero"/><path fill="#27ffef" d="M 450.648438 336.351562 C 450.648438 338.609375 448.808594 340.449219 446.550781 340.449219 C 444.289062 340.449219 442.453125 338.609375 442.453125 336.351562 C 442.453125 334.089844 444.289062 332.25 446.550781 332.25 C 448.808594 332.25 450.648438 334.089844 450.648438 336.351562 Z M 443.359375 336.351562 C 443.359375 338.109375 444.789062 339.542969 446.550781 339.542969 C 448.308594 339.542969 449.742188 338.109375 449.742188 336.351562 C 449.742188 334.589844 448.308594 333.160156 446.550781 333.160156 C 444.789062 333.160156 443.359375 334.589844 443.359375 336.351562 Z M 443.359375 336.351562 " fill-opacity="1" fill-rule="nonzero"/><path fill="#27ffef" d="M 504.238281 290.613281 C 504.238281 291.097656 504.148438 291.5625 503.960938 292.007812 C 503.777344 292.457031 503.511719 292.847656 503.171875 293.191406 C 502.828125 293.53125 502.433594 293.796875 501.988281 293.980469 C 501.542969 294.167969 501.078125 294.257812 500.59375 294.257812 C 500.109375 294.257812 499.644531 294.167969 499.199219 293.980469 C 498.753906 293.796875 498.359375 293.53125 498.015625 293.191406 C 497.675781 292.847656 497.410156 292.457031 497.226562 292.007812 C 497.042969 291.5625 496.949219 291.097656 496.949219 290.613281 C 496.949219 290.128906 497.042969 289.664062 497.226562 289.21875 C 497.410156 288.773438 497.675781 288.378906 498.015625 288.035156 C 498.359375 287.695312 498.753906 287.429688 499.199219 287.246094 C 499.644531 287.0625 500.109375 286.96875 500.59375 286.96875 C 501.078125 286.96875 501.542969 287.0625 501.988281 287.246094 C 502.433594 287.429688 502.828125 287.695312 503.171875 288.035156 C 503.511719 288.378906 503.777344 288.773438 503.960938 289.21875 C 504.148438 289.664062 504.238281 290.128906 504.238281 290.613281 Z M 504.238281 290.613281 " fill-opacity="1" fill-rule="nonzero"/><path fill="#27ffef" d="M 719.761719 337.257812 L 719.761719 335.441406 L 811.941406 335.441406 L 857.679688 289.703125 L 935.542969 289.703125 L 935.542969 291.523438 L 858.429688 291.523438 L 812.695312 337.257812 Z M 719.761719 337.257812 " fill-opacity="1" fill-rule="nonzero"/><path fill="#27ffef" d="M 719.761719 383 L 719.761719 381.179688 L 811.941406 381.179688 L 857.679688 335.441406 L 989.328125 335.441406 L 989.328125 337.257812 L 858.429688 337.257812 L 812.695312 383 Z M 719.761719 383 " fill-opacity="1" fill-rule="nonzero"/><path fill="#27ffef" d="M 835.730469 358.671875 L 837.015625 357.386719 L 862.238281 382.609375 L 1032.742188 382.609375 L 1032.742188 384.429688 L 861.484375 384.429688 Z M 835.730469 358.671875 " fill-opacity="1" fill-rule="nonzero"/><path fill="#27ffef" d="M 719.761719 474.3125 L 719.761719 472.496094 L 812.695312 472.496094 L 858.429688 518.230469 L 935.542969 518.230469 L 935.542969 520.050781 L 857.679688 520.050781 L 811.941406 474.3125 Z M 719.761719 474.3125 " fill-opacity="1" fill-rule="nonzero"/><path fill="#27ffef" d="M 719.761719 428.574219 L 719.761719 426.753906 L 812.695312 426.753906 L 858.429688 472.496094 L 989.328125 472.496094 L 989.328125 474.3125 L 857.679688 474.3125 L 811.941406 428.574219 Z M 719.761719 428.574219 " fill-opacity="1" fill-rule="nonzero"/><path fill="#27ffef" d="M 835.730469 451.078125 L 861.484375 425.324219 L 1032.742188 425.324219 L 1032.742188 427.144531 L 862.238281 427.144531 L 837.015625 452.363281 Z M 835.730469 451.078125 " fill-opacity="1" fill-rule="nonzero"/><path fill="#27ffef" d="M 942.574219 290.613281 C 942.574219 291.097656 942.480469 291.5625 942.296875 292.007812 C 942.113281 292.457031 941.847656 292.847656 941.507812 293.191406 C 941.164062 293.53125 940.769531 293.796875 940.324219 293.980469 C 939.878906 294.167969 939.414062 294.257812 938.929688 294.257812 C 938.445312 294.257812 937.980469 294.167969 937.535156 293.980469 C 937.085938 293.796875 936.695312 293.53125 936.351562 293.191406 C 936.011719 292.847656 935.746094 292.457031 935.5625 292.007812 C 935.375 291.5625 935.285156 291.097656 935.285156 290.613281 C 935.285156 290.128906 935.375 289.664062 935.5625 289.21875 C 935.746094 288.773438 936.011719 288.378906 936.351562 288.035156 C 936.695312 287.695312 937.085938 287.429688 937.535156 287.246094 C 937.980469 287.0625 938.445312 286.96875 938.929688 286.96875 C 939.414062 286.96875 939.878906 287.0625 940.324219 287.246094 C 940.769531 287.429688 941.164062 287.695312 941.507812 288.035156 C 941.847656 288.378906 942.113281 288.773438 942.296875 289.21875 C 942.480469 289.664062 942.574219 290.128906 942.574219 290.613281 Z M 942.574219 290.613281 " fill-opacity="1" fill-rule="nonzero"/><g clip-path="url(#ea5c44bfad)"><path fill="#27ffef" d="M 1039.601562 383.519531 C 1039.601562 384.003906 1039.507812 384.46875 1039.324219 384.914062 C 1039.140625 385.363281 1038.875 385.753906 1038.535156 386.097656 C 1038.191406 386.4375 1037.796875 386.703125 1037.351562 386.886719 C 1036.90625 387.074219 1036.441406 387.164062 1035.957031 387.164062 C 1035.472656 387.164062 1035.007812 387.074219 1034.5625 386.886719 C 1034.117188 386.703125 1033.722656 386.4375 1033.378906 386.097656 C 1033.039062 385.753906 1032.773438 385.363281 1032.589844 384.914062 C 1032.402344 384.46875 1032.3125 384.003906 1032.3125 383.519531 C 1032.3125 383.035156 1032.402344 382.570312 1032.589844 382.125 C 1032.773438 381.679688 1033.039062 381.285156 1033.378906 380.941406 C 1033.722656 380.601562 1034.117188 380.335938 1034.5625 380.152344 C 1035.007812 379.96875 1035.472656 379.875 1035.957031 379.875 C 1036.441406 379.875 1036.90625 379.96875 1037.351562 380.152344 C 1037.796875 380.335938 1038.191406 380.601562 1038.535156 380.941406 C 1038.875 381.285156 1039.140625 381.679688 1039.324219 382.125 C 1039.507812 382.570312 1039.601562 383.035156 1039.601562 383.519531 Z M 1039.601562 383.519531 " fill-opacity="1" fill-rule="nonzero"/></g><g clip-path="url(#d96ee29ada)"><path fill="#27ffef" d="M 1039.601562 426.234375 C 1039.601562 426.71875 1039.507812 427.183594 1039.324219 427.628906 C 1039.140625 428.074219 1038.875 428.46875 1038.535156 428.8125 C 1038.191406 429.152344 1037.796875 429.417969 1037.351562 429.601562 C 1036.90625 429.785156 1036.441406 429.878906 1035.957031 429.878906 C 1035.472656 429.878906 1035.007812 429.785156 1034.5625 429.601562 C 1034.117188 429.417969 1033.722656 429.152344 1033.378906 428.8125 C 1033.039062 428.46875 1032.773438 428.074219 1032.589844 427.628906 C 1032.402344 427.183594 1032.3125 426.71875 1032.3125 426.234375 C 1032.3125 425.75 1032.402344 425.285156 1032.589844 424.839844 C 1032.773438 424.390625 1033.039062 424 1033.378906 423.65625 C 1033.722656 423.316406 1034.117188 423.050781 1034.5625 422.867188 C 1035.007812 422.679688 1035.472656 422.589844 1035.957031 422.589844 C 1036.441406 422.589844 1036.90625 422.679688 1037.351562 422.867188 C 1037.796875 423.050781 1038.191406 423.316406 1038.535156 423.65625 C 1038.875 424 1039.140625 424.390625 1039.324219 424.839844 C 1039.507812 425.285156 1039.601562 425.75 1039.601562 426.234375 Z M 1039.601562 426.234375 " fill-opacity="1" fill-rule="nonzero"/></g><path fill="#27ffef" d="M 988.871094 336.351562 C 988.871094 334.089844 990.710938 332.25 992.972656 332.25 C 995.230469 332.25 997.070312 334.089844 997.070312 336.351562 C 997.070312 338.613281 995.230469 340.453125 992.972656 340.453125 C 990.710938 340.453125 988.871094 338.613281 988.871094 336.351562 Z M 996.164062 336.351562 C 996.164062 334.589844 994.730469 333.160156 992.972656 333.160156 C 991.210938 333.160156 989.78125 334.589844 989.78125 336.351562 C 989.78125 338.109375 991.210938 339.542969 992.972656 339.542969 C 994.730469 339.542969 996.164062 338.109375 996.164062 336.351562 Z M 996.164062 336.351562 " fill-opacity="1" fill-rule="nonzero"/><path fill="#27ffef" d="M 988.871094 473.402344 C 988.871094 471.144531 990.710938 469.304688 992.972656 469.304688 C 995.230469 469.304688 997.070312 471.144531 997.070312 473.402344 C 997.070312 475.664062 995.230469 477.503906 992.972656 477.503906 C 990.710938 477.503906 988.871094 475.664062 988.871094 473.402344 Z M 996.164062 473.402344 C 996.164062 471.644531 994.730469 470.210938 992.972656 470.210938 C 991.210938 470.210938 989.78125 471.644531 989.78125 473.402344 C 989.78125 475.164062 991.210938 476.59375 992.972656 476.59375 C 994.730469 476.59375 996.164062 475.160156 996.164062 473.402344 Z M 996.164062 473.402344 " fill-opacity="1" fill-rule="nonzero"/><path fill="#27ffef" d="M 942.574219 519.140625 C 942.574219 519.625 942.480469 520.089844 942.296875 520.535156 C 942.113281 520.980469 941.847656 521.375 941.507812 521.71875 C 941.164062 522.058594 940.769531 522.324219 940.324219 522.507812 C 939.878906 522.691406 939.414062 522.785156 938.929688 522.785156 C 938.445312 522.785156 937.980469 522.691406 937.535156 522.507812 C 937.085938 522.324219 936.695312 522.058594 936.351562 521.71875 C 936.011719 521.375 935.746094 520.980469 935.5625 520.535156 C 935.375 520.089844 935.285156 519.625 935.285156 519.140625 C 935.285156 518.65625 935.375 518.191406 935.5625 517.746094 C 935.746094 517.296875 936.011719 516.90625 936.351562 516.5625 C 936.695312 516.222656 937.085938 515.957031 937.535156 515.773438 C 937.980469 515.585938 938.445312 515.496094 938.929688 515.496094 C 939.414062 515.496094 939.878906 515.585938 940.324219 515.773438 C 940.769531 515.957031 941.164062 516.222656 941.507812 516.5625 C 941.847656 516.90625 942.113281 517.296875 942.296875 517.746094 C 942.480469 518.191406 942.574219 518.65625 942.574219 519.140625 Z M 942.574219 519.140625 " fill-opacity="1" fill-rule="nonzero"/><path fill="#27ffef" d="M 737.789062 377.113281 L 737.789062 452.21875 L 700.640625 452.21875 L 700.640625 377.113281 Z M 737.789062 377.113281 " fill-opacity="1" fill-rule="nonzero"/><path fill="#ffffff" d="M 696.898438 443.128906 L 696.898438 438.585938 L 704.425781 438.585938 L 704.425781 443.128906 Z M 696.898438 434.042969 L 696.898438 429.496094 L 704.425781 429.496094 L 704.425781 434.042969 Z M 696.898438 424.953125 L 696.898438 420.40625 L 704.425781 420.40625 L 704.425781 424.953125 Z M 696.898438 415.863281 L 696.898438 411.316406 L 704.425781 411.316406 L 704.425781 415.863281 Z M 696.898438 406.8125 L 696.898438 402.265625 L 704.425781 402.265625 L 704.425781 406.8125 Z M 696.898438 397.722656 L 696.898438 393.175781 L 704.425781 393.175781 L 704.425781 397.722656 Z M 696.898438 388.632812 L 696.898438 384.085938 L 704.425781 384.085938 L 704.425781 388.632812 Z M 707.238281 380.875 L 707.238281 373.3125 L 711.761719 373.3125 L 711.761719 380.875 Z M 711.996094 455.980469 L 711.996094 448.417969 L 716.523438 448.417969 L 716.523438 455.980469 Z M 716.289062 380.875 L 716.289062 373.3125 L 720.816406 373.3125 L 720.816406 380.875 Z M 721.050781 455.980469 L 721.050781 448.417969 L 725.578125 448.417969 L 725.578125 455.980469 Z M 725.34375 380.875 L 725.34375 373.3125 L 729.867188 373.3125 L 729.867188 380.875 Z M 734.042969 441.796875 L 734.042969 437.253906 L 741.574219 437.253906 L 741.574219 441.796875 Z M 734.042969 432.710938 L 734.042969 428.164062 L 741.574219 428.164062 L 741.574219 432.710938 Z M 734.042969 423.621094 L 734.042969 419.074219 L 741.574219 419.074219 L 741.574219 423.621094 Z M 734.042969 414.53125 L 734.042969 409.984375 L 741.574219 409.984375 L 741.574219 414.53125 Z M 734.042969 405.480469 L 734.042969 400.933594 L 741.574219 400.933594 L 741.574219 405.480469 Z M 734.042969 396.390625 L 734.042969 391.84375 L 741.574219 391.84375 L 741.574219 396.390625 Z M 734.042969 387.300781 L 734.042969 382.753906 L 741.574219 382.753906 L 741.574219 387.300781 Z M 734.042969 387.300781 " fill-opacity="1" fill-rule="nonzero"/><path fill="#ffffff" d="M 764.089844 440.230469 L 764.089844 441.40625 L 741.457031 441.40625 L 741.457031 440.230469 Z M 764.089844 440.230469 " fill-opacity="1" fill-rule="nonzero"/><path fill="#ffffff" d="M 764.089844 440.230469 L 764.089844 464.128906 L 762.527344 464.128906 L 762.527344 440.230469 Z M 764.089844 440.230469 " fill-opacity="1" fill-rule="nonzero"/><path fill="#ffffff" d="M 760.851562 464.367188 C 760.851562 467.109375 765.066406 467.109375 765.066406 464.367188 C 765.066406 461.625 760.851562 461.625 760.851562 464.367188 Z M 760.851562 464.367188 " fill-opacity="1" fill-rule="nonzero"/><path fill="#ffffff" d="M 779.308594 430.046875 L 779.308594 431.613281 L 741.457031 431.613281 L 741.457031 430.046875 Z M 779.308594 430.046875 " fill-opacity="1" fill-rule="nonzero"/><path fill="#ffffff" d="M 779.308594 430.046875 L 779.308594 448.460938 L 778.136719 448.460938 L 778.136719 430.046875 Z M 779.308594 430.046875 " fill-opacity="1" fill-rule="nonzero"/><path fill="#ffffff" d="M 790.625 447.285156 L 790.625 448.460938 L 778.136719 448.460938 L 778.136719 447.285156 Z M 790.625 447.285156 " fill-opacity="1" fill-rule="nonzero"/><path fill="#ffffff" d="M 788.4375 447.714844 C 788.4375 450.457031 792.652344 450.457031 792.652344 447.714844 C 792.652344 444.972656 788.4375 444.972656 788.4375 447.714844 Z M 788.4375 447.714844 " fill-opacity="1" fill-rule="nonzero"/><path fill="#ffffff" d="M 792.183594 420.25 L 792.183594 421.816406 L 741.457031 421.816406 L 741.457031 420.25 Z M 792.183594 420.25 " fill-opacity="1" fill-rule="nonzero"/><path fill="#ffffff" d="M 769.550781 412.023438 L 769.550781 413.199219 L 741.457031 413.199219 L 741.457031 412.023438 Z M 769.550781 412.023438 " fill-opacity="1" fill-rule="nonzero"/><path fill="#ffffff" d="M 758.238281 402.226562 L 758.238281 403.402344 L 741.457031 403.402344 L 741.457031 402.226562 Z M 758.238281 402.226562 " fill-opacity="1" fill-rule="nonzero"/><path fill="#ffffff" d="M 758.238281 390.867188 L 758.238281 402.226562 L 757.066406 402.226562 L 757.066406 390.867188 Z M 758.238281 390.867188 " fill-opacity="1" fill-rule="nonzero"/><path fill="#ffffff" d="M 778.136719 389.296875 L 778.136719 390.867188 L 757.066406 390.867188 L 757.066406 389.296875 Z M 778.136719 389.296875 " fill-opacity="1" fill-rule="nonzero"/><path fill="#ffffff" d="M 751.214844 393.609375 L 751.214844 395.175781 L 741.457031 395.175781 L 741.457031 393.609375 Z M 751.214844 393.609375 " fill-opacity="1" fill-rule="nonzero"/><path fill="#ffffff" d="M 751.214844 379.503906 L 751.214844 393.609375 L 750.042969 393.609375 L 750.042969 379.503906 Z M 751.214844 379.503906 " fill-opacity="1" fill-rule="nonzero"/><path fill="#ffffff" d="M 745.75 384.988281 L 745.75 386.554688 L 741.457031 386.554688 L 741.457031 384.988281 Z M 745.75 384.988281 " fill-opacity="1" fill-rule="nonzero"/><path fill="#ffffff" d="M 745.75 359.914062 L 745.75 384.988281 L 744.1875 384.988281 L 744.1875 359.914062 Z M 745.75 359.914062 " fill-opacity="1" fill-rule="nonzero"/><path fill="#ffffff" d="M 742.121094 359.679688 C 742.121094 362.421875 746.335938 362.421875 746.335938 359.679688 C 746.335938 356.976562 742.121094 356.976562 742.121094 359.679688 Z M 742.121094 359.679688 " fill-opacity="1" fill-rule="nonzero"/><path fill="#ffffff" d="M 747.972656 378.71875 C 747.972656 381.460938 752.1875 381.460938 752.1875 378.71875 C 752.1875 375.976562 747.972656 375.976562 747.972656 378.71875 Z M 747.972656 378.71875 " fill-opacity="1" fill-rule="nonzero"/><path fill="#ffffff" d="M 775.328125 389.496094 C 775.328125 392.238281 779.542969 392.238281 779.542969 389.496094 C 779.542969 386.753906 775.328125 386.792969 775.328125 389.496094 Z M 775.328125 389.496094 " fill-opacity="1" fill-rule="nonzero"/><path fill="#ffffff" d="M 767.132812 411.789062 C 767.132812 414.53125 771.347656 414.53125 771.347656 411.789062 C 771.347656 409.085938 767.132812 409.085938 767.132812 411.789062 Z M 767.132812 411.789062 " fill-opacity="1" fill-rule="nonzero"/><g clip-path="url(#b8c49c5228)"><path fill="#ffffff" d="M 790.507812 420.484375 C 790.507812 423.226562 794.722656 423.226562 794.722656 420.484375 C 794.722656 417.742188 790.507812 417.742188 790.507812 420.484375 Z M 790.507812 420.484375 " fill-opacity="1" fill-rule="nonzero"/></g><path fill="#ffffff" d="M 724.679688 455.511719 L 724.679688 476.667969 L 723.117188 476.667969 L 723.117188 455.511719 Z M 724.679688 455.511719 " fill-opacity="1" fill-rule="nonzero"/><path fill="#ffffff" d="M 714.925781 455.511719 L 714.925781 472.359375 L 713.363281 472.359375 L 713.363281 455.511719 Z M 714.925781 455.511719 " fill-opacity="1" fill-rule="nonzero"/><path fill="#ffffff" d="M 713.363281 471.183594 L 713.363281 472.359375 L 693.851562 472.359375 L 693.851562 471.183594 Z M 713.363281 471.183594 " fill-opacity="1" fill-rule="nonzero"/><path fill="#ffffff" d="M 721.558594 476.589844 C 721.558594 479.332031 725.773438 479.332031 725.773438 476.589844 C 725.773438 473.847656 721.558594 473.847656 721.558594 476.589844 Z M 721.558594 476.589844 " fill-opacity="1" fill-rule="nonzero"/><path fill="#ffffff" d="M 691.394531 471.886719 C 691.394531 474.628906 695.609375 474.628906 695.609375 471.886719 C 695.609375 469.144531 691.394531 469.144531 691.394531 471.886719 Z M 691.394531 471.886719 " fill-opacity="1" fill-rule="nonzero"/><path fill="#ffffff" d="M 696.585938 440.230469 L 696.585938 441.40625 L 672.78125 441.40625 L 672.78125 440.230469 Z M 696.585938 440.230469 " fill-opacity="1" fill-rule="nonzero"/><path fill="#ffffff" d="M 672.78125 440.230469 L 672.78125 464.128906 L 671.609375 464.128906 L 671.609375 440.230469 Z M 672.78125 440.230469 " fill-opacity="1" fill-rule="nonzero"/><path fill="#ffffff" d="M 696.585938 431.613281 L 696.585938 433.179688 L 663.027344 433.179688 L 663.027344 431.613281 Z M 696.585938 431.613281 " fill-opacity="1" fill-rule="nonzero"/><path fill="#ffffff" d="M 663.027344 431.613281 L 663.027344 454.335938 L 661.464844 454.335938 L 661.464844 431.613281 Z M 663.027344 431.613281 " fill-opacity="1" fill-rule="nonzero"/><path fill="#ffffff" d="M 696.585938 421.816406 L 696.585938 422.992188 L 663.027344 422.992188 L 663.027344 421.816406 Z M 696.585938 421.816406 " fill-opacity="1" fill-rule="nonzero"/><path fill="#ffffff" d="M 648.980469 413.277344 L 648.980469 396.351562 L 650.539062 396.351562 L 650.539062 412.6875 L 650.8125 413.199219 L 698.144531 413.199219 L 698.144531 414.765625 L 650.226562 414.765625 Z M 648.980469 413.277344 " fill-opacity="1" fill-rule="nonzero"/><path fill="#ffffff" d="M 698.144531 403.402344 L 698.144531 404.96875 L 660.296875 404.96875 L 660.296875 403.402344 Z M 698.144531 403.402344 " fill-opacity="1" fill-rule="nonzero"/><path fill="#ffffff" d="M 653.273438 393.53125 L 653.273438 379.503906 L 654.441406 379.503906 L 654.441406 392.941406 L 654.988281 393.609375 L 699.316406 393.609375 L 699.316406 395.175781 L 654.441406 395.175781 Z M 653.273438 393.53125 " fill-opacity="1" fill-rule="nonzero"/><path fill="#ffffff" d="M 677.074219 385.105469 L 677.074219 368.140625 L 678.246094 368.140625 L 678.246094 384.519531 L 678.828125 384.988281 L 699.316406 384.988281 L 699.316406 386.554688 L 678.285156 386.554688 Z M 677.074219 385.105469 " fill-opacity="1" fill-rule="nonzero"/><path fill="#ffffff" d="M 669.894531 463.894531 C 669.894531 466.636719 674.109375 466.636719 674.109375 463.894531 C 674.109375 461.152344 669.894531 461.152344 669.894531 463.894531 Z M 669.894531 463.894531 " fill-opacity="1" fill-rule="nonzero"/><path fill="#ffffff" d="M 659.867188 453.789062 C 659.867188 456.53125 664.082031 456.53125 664.082031 453.789062 C 664.082031 451.042969 659.867188 451.085938 659.867188 453.789062 Z M 659.867188 453.789062 " fill-opacity="1" fill-rule="nonzero"/><path fill="#ffffff" d="M 660.570312 421.894531 C 660.570312 424.636719 664.78125 424.636719 664.78125 421.894531 C 664.78125 419.152344 660.570312 419.152344 660.570312 421.894531 Z M 660.570312 421.894531 " fill-opacity="1" fill-rule="nonzero"/><path fill="#ffffff" d="M 657.523438 403.558594 C 657.523438 406.300781 661.738281 406.300781 661.738281 403.558594 C 661.738281 400.855469 657.523438 400.855469 657.523438 403.558594 Z M 657.523438 403.558594 " fill-opacity="1" fill-rule="nonzero"/><g clip-path="url(#ccfd8f971b)"><path fill="#ffffff" d="M 646.988281 396.078125 C 646.988281 398.820312 651.203125 398.820312 651.203125 396.078125 C 651.203125 393.335938 646.988281 393.335938 646.988281 396.078125 Z M 646.988281 396.078125 " fill-opacity="1" fill-rule="nonzero"/></g><path fill="#ffffff" d="M 651.671875 378.917969 C 651.671875 381.660156 655.886719 381.660156 655.886719 378.917969 C 655.886719 376.210938 651.671875 376.210938 651.671875 378.917969 Z M 651.671875 378.917969 " fill-opacity="1" fill-rule="nonzero"/><path fill="#ffffff" d="M 675.277344 367.4375 C 675.277344 370.179688 679.492188 370.179688 679.492188 367.4375 C 679.492188 364.695312 675.277344 364.695312 675.277344 367.4375 Z M 675.277344 367.4375 " fill-opacity="1" fill-rule="nonzero"/><path fill="#ffffff" d="M 728.972656 346.984375 L 728.972656 375.195312 L 727.410156 375.195312 L 727.410156 346.984375 Z M 728.972656 346.984375 " fill-opacity="1" fill-rule="nonzero"/><path fill="#ffffff" d="M 719.214844 336.015625 L 719.214844 376.761719 L 717.65625 376.761719 L 717.65625 336.015625 Z M 719.214844 336.015625 " fill-opacity="1" fill-rule="nonzero"/><path fill="#ffffff" d="M 743.019531 334.449219 L 743.019531 336.015625 L 717.65625 336.015625 L 717.65625 334.449219 Z M 743.019531 334.449219 " fill-opacity="1" fill-rule="nonzero"/><path fill="#ffffff" d="M 691.121094 350.121094 L 691.121094 348.550781 L 709.695312 348.550781 L 710.632812 349.296875 L 710.632812 376.761719 L 709.460938 376.761719 L 709.460938 349.882812 L 709.109375 350.121094 Z M 691.121094 350.121094 " fill-opacity="1" fill-rule="nonzero"/><path fill="#ffffff" d="M 740.480469 335.035156 C 740.480469 337.777344 744.695312 337.777344 744.695312 335.035156 C 744.695312 332.332031 740.480469 332.332031 740.480469 335.035156 Z M 740.480469 335.035156 " fill-opacity="1" fill-rule="nonzero"/><path fill="#ffffff" d="M 726.003906 347.257812 C 726.003906 350.003906 730.21875 350.003906 730.21875 347.257812 C 730.21875 344.515625 726.003906 344.515625 726.003906 347.257812 Z M 726.003906 347.257812 " fill-opacity="1" fill-rule="nonzero"/><path fill="#ffffff" d="M 688.390625 348.671875 C 688.390625 351.414062 692.605469 351.414062 692.605469 348.671875 C 692.566406 345.925781 688.390625 345.925781 688.390625 348.671875 Z M 688.390625 348.671875 " fill-opacity="1" fill-rule="nonzero"/></svg>