<svg id="visual" viewBox="0 0 960 540" width="960" height="540" xmlns="http://www.w3.org/2000/svg" xmlns:xlink="http://www.w3.org/1999/xlink" version="1.1"><rect x="0" y="0" width="960" height="540" fill="#191919"></rect><path d="M0 354L6.3 366.3C12.7 378.7 25.3 403.3 38.2 403.3C51 403.3 64 378.7 76.8 382.7C89.7 386.7 102.3 419.3 115.2 433C128 446.7 141 441.3 153.8 435.3C166.7 429.3 179.3 422.7 192 415C204.7 407.3 217.3 398.7 230.2 402.3C243 406 256 422 268.8 420.3C281.7 418.7 294.3 399.3 307.2 397C320 394.7 333 409.3 345.8 405.5C358.7 401.7 371.3 379.3 384 372.2C396.7 365 409.3 373 422.2 386.7C435 400.3 448 419.7 460.8 424.3C473.7 429 486.3 419 499.2 418.2C512 417.3 525 425.7 537.8 418.8C550.7 412 563.3 390 576 385.7C588.7 381.3 601.3 394.7 614.2 400C627 405.3 640 402.7 652.8 405.7C665.7 408.7 678.3 417.3 691.2 412C704 406.7 717 387.3 729.8 376.3C742.7 365.3 755.3 362.7 768 369.5C780.7 376.3 793.3 392.7 806.2 399.5C819 406.3 832 403.7 844.8 402.2C857.7 400.7 870.3 400.3 883.2 406.5C896 412.7 909 425.3 921.8 422.7C934.7 420 947.3 402 953.7 393L960 384L960 541L953.7 541C947.3 541 934.7 541 921.8 541C909 541 896 541 883.2 541C870.3 541 857.7 541 844.8 541C832 541 819 541 806.2 541C793.3 541 780.7 541 768 541C755.3 541 742.7 541 729.8 541C717 541 704 541 691.2 541C678.3 541 665.7 541 652.8 541C640 541 627 541 614.2 541C601.3 541 588.7 541 576 541C563.3 541 550.7 541 537.8 541C525 541 512 541 499.2 541C486.3 541 473.7 541 460.8 541C448 541 435 541 422.2 541C409.3 541 396.7 541 384 541C371.3 541 358.7 541 345.8 541C333 541 320 541 307.2 541C294.3 541 281.7 541 268.8 541C256 541 243 541 230.2 541C217.3 541 204.7 541 192 541C179.3 541 166.7 541 153.8 541C141 541 128 541 115.2 541C102.3 541 89.7 541 76.8 541C64 541 51 541 38.2 541C25.3 541 12.7 541 6.3 541L0 541Z" fill="#013852" stroke-linecap="round" stroke-linejoin="miter"></path></svg>