<svg id="visual" viewBox="0 0 960 540" width="960" height="540" xmlns="http://www.w3.org/2000/svg" xmlns:xlink="http://www.w3.org/1999/xlink" version="1.1"><rect x="0" y="0" width="960" height="540" fill="#191919"></rect><g transform="translate(693.8328310691321 76.94091155823062)"><path d="M335.9 -469.9C491.8 -491.8 713.5 -515.9 829.7 -437.9C945.9 -360 956.4 -180 818 -79.9C679.6 20.2 392.2 40.3 285.6 134.9C179 229.4 253.3 398.3 235.8 399.9C218.3 401.5 109.2 235.7 45 157.8C-19.2 79.9 -38.3 89.7 -132.6 132.5C-226.8 175.2 -396.2 250.9 -386.6 234.3C-377 217.7 -188.5 108.8 -122.1 38.3C-55.7 -32.2 -111.4 -64.3 -176.9 -177.8C-242.4 -291.2 -317.7 -486 -289.9 -538C-262 -590.1 -131 -499.6 -20.5 -464.1C90 -428.6 180 -448.1 335.9 -469.9" fill="#013852"></path></g></svg>