<svg id="visual" viewBox="0 0 960 540" width="960" height="540" xmlns="http://www.w3.org/2000/svg" xmlns:xlink="http://www.w3.org/1999/xlink" version="1.1"><rect x="0" y="0" width="960" height="540" fill="#ffffff"></rect><g transform="translate(-76.46408118132916 284.3877226812973)"><path d="M351.3 -788.5C351.3 -608.5 175.7 -304.3 148.5 -152.1C121.3 0 242.7 0 392.6 86.6C542.6 173.2 721.2 346.3 686.3 390.9C651.4 435.5 402.9 351.6 253 342.7C103 333.7 51.5 399.9 -11.3 419.5C-74.2 439.1 -148.3 412.3 -159.2 340.8C-170 269.4 -117.5 153.5 -208.1 89.2C-298.6 25 -532.3 12.5 -537.7 -3.1C-543 -18.7 -320 -37.3 -254.7 -145.3C-189.3 -253.3 -281.7 -450.5 -265.5 -621.2C-249.3 -791.9 -124.7 -935.9 25.5 -980.1C175.7 -1024.3 351.3 -968.5 351.3 -788.5" fill="#013852"></path></g></svg>