<svg xmlns="http://www.w3.org/2000/svg" xmlns:xlink="http://www.w3.org/1999/xlink" width="1920" zoomAndPan="magnify" viewBox="0 0 1440 809.999993" height="1080" preserveAspectRatio="xMidYMid meet" version="1.0"><defs><clipPath id="87ed0e597d"><path d="M 564 259 L 856.167969 259 L 856.167969 591.375 L 564 591.375 Z M 564 259 " clip-rule="nonzero"/></clipPath><clipPath id="bd93385d4e"><path d="M 506.167969 203.390625 L 916.761719 203.390625 L 916.761719 415.761719 L 506.167969 415.761719 Z M 506.167969 203.390625 " clip-rule="nonzero"/></clipPath><clipPath id="1123cc274c"><path d="M 573 267 L 865.535156 267 L 865.535156 599.300781 L 573 599.300781 Z M 573 267 " clip-rule="nonzero"/></clipPath><clipPath id="389f45b70c"><path d="M 515.535156 211.316406 L 926.128906 211.316406 L 926.128906 423.6875 L 515.535156 423.6875 Z M 515.535156 211.316406 " clip-rule="nonzero"/></clipPath></defs><g clip-path="url(#87ed0e597d)"><path fill="#ffffff" d="M 710.097656 259.417969 L 564.160156 397.921875 L 564.160156 582.328125 C 564.160156 587.324219 568.207031 591.375 573.203125 591.375 L 657.933594 591.375 C 662.929688 591.375 666.980469 587.324219 666.980469 582.328125 L 666.980469 485.058594 C 666.980469 480.0625 671.03125 476.011719 676.023438 476.011719 L 744.167969 476.011719 C 749.167969 476.011719 753.21875 480.0625 753.21875 485.058594 L 753.21875 582.328125 C 753.21875 587.324219 757.265625 591.375 762.265625 591.375 L 846.996094 591.375 C 851.988281 591.375 856.039062 587.324219 856.039062 582.328125 L 856.039062 397.921875 L 710.097656 259.417969 " fill-opacity="1" fill-rule="nonzero"/></g><g clip-path="url(#bd93385d4e)"><path fill="#ffffff" d="M 901.714844 415.238281 C 897.992188 415.238281 894.265625 413.871094 891.355469 411.105469 L 710.09375 239.1875 L 531.582031 408.375 C 525.550781 414.089844 516.015625 413.835938 510.296875 407.800781 C 504.578125 401.769531 504.832031 392.242188 510.863281 386.523438 L 699.742188 207.519531 C 705.554688 202.015625 714.65625 202.015625 720.457031 207.523438 L 912.078125 389.265625 C 918.105469 394.992188 918.359375 404.511719 912.636719 410.542969 C 909.675781 413.664062 905.695312 415.238281 901.714844 415.238281 " fill-opacity="1" fill-rule="nonzero"/></g><g clip-path="url(#1123cc274c)"><path fill="#38b6ff" d="M 719.464844 267.339844 L 573.523438 405.847656 L 573.523438 590.253906 C 573.523438 595.25 577.574219 599.300781 582.566406 599.300781 L 667.296875 599.300781 C 672.296875 599.300781 676.347656 595.25 676.347656 590.253906 L 676.347656 492.984375 C 676.347656 487.984375 680.394531 483.9375 685.390625 483.9375 L 753.535156 483.9375 C 758.535156 483.9375 762.582031 487.984375 762.582031 492.984375 L 762.582031 590.253906 C 762.582031 595.25 766.632812 599.300781 771.632812 599.300781 L 856.359375 599.300781 C 861.355469 599.300781 865.402344 595.25 865.402344 590.253906 L 865.402344 405.847656 L 719.464844 267.339844 " fill-opacity="1" fill-rule="nonzero"/></g><g clip-path="url(#389f45b70c)"><path fill="#38b6ff" d="M 911.078125 423.164062 C 907.359375 423.164062 903.632812 421.796875 900.722656 419.03125 L 719.460938 247.113281 L 540.949219 416.296875 C 534.914062 422.015625 525.382812 421.761719 519.660156 415.722656 C 513.941406 409.691406 514.199219 400.167969 520.230469 394.449219 L 709.105469 215.445312 C 714.917969 209.9375 724.019531 209.9375 729.824219 215.449219 L 921.441406 397.191406 C 927.46875 402.914062 927.726562 412.4375 922 418.46875 C 919.042969 421.589844 915.0625 423.164062 911.078125 423.164062 " fill-opacity="1" fill-rule="nonzero"/></g></svg>